<svg width="309" height="168" viewBox="0 0 309 168" fill="none" xmlns="http://www.w3.org/2000/svg">
<mask id="mask0_686_5466" style="mask-type:alpha" maskUnits="userSpaceOnUse" x="0" y="0" width="309" height="168">
<rect x="0.5" y="0.5" width="308" height="167" rx="15.5" fill="white" stroke="url(#paint0_linear_686_5466)"/>
</mask>
<g mask="url(#mask0_686_5466)">
<g filter="url(#filter0_f_686_5466)">
<path fill-rule="evenodd" clip-rule="evenodd" d="M-123.538 23.1384C-121.185 -28.1243 -77.0943 -69 -23.0399 -69C32.5242 -69 77.5651 -25.817 77.5651 27.4465C77.5651 40.3707 74.901 52.699 70.0967 63.9715C43.3049 135.378 15.403 214.712 -13.5024 284.356C-21.841 310.75 -47.3897 329.966 -77.6448 329.966C-114.676 329.966 -144.682 301.188 -144.682 265.693C-144.682 199.114 -129.994 94.7411 -123.52 23.1384H-123.538Z" fill="url(#paint1_radial_686_5466)"/>
<path fill-rule="evenodd" clip-rule="evenodd" d="M266.52 296.208C277.496 311.661 283.916 330.332 283.916 350.433C283.916 403.705 238.876 446.88 183.32 446.88C145.233 446.88 112.091 426.582 95.0147 396.664C29.4247 304.313 -48.6065 178.706 -107.216 80.2673C-117.598 65.0954 -123.636 46.9436 -123.636 27.4465C-123.636 -25.8255 -78.5953 -69 -23.0401 -69C14.4259 -69 47.0965 -49.3667 64.4131 -20.2489C129.124 74.3331 210.752 198.459 266.52 296.208Z" fill="url(#paint2_radial_686_5466)"/>
<path fill-rule="evenodd" clip-rule="evenodd" d="M284.18 357.085C280.548 407.19 237.007 446.746 183.832 446.746C128.268 446.746 83.2361 403.563 83.2361 350.3C83.2361 340.211 84.8612 330.479 87.8716 321.344C108.021 246.778 134.102 159.263 159.029 86.1873C167.386 54.5664 197.268 31.1699 232.851 31.1699C274.909 31.1699 309 63.8551 309 104.177C309 107.37 308.787 110.503 308.37 113.585C303.077 194.604 294.348 276.484 284.188 357.085H284.18Z" fill="url(#paint3_radial_686_5466)"/>
</g>
</g>
<defs>
<filter id="filter0_f_686_5466" x="-324.682" y="-249" width="813.682" height="875.879" filterUnits="userSpaceOnUse" color-interpolation-filters="sRGB">
<feFlood flood-opacity="0" result="BackgroundImageFix"/>
<feBlend mode="normal" in="SourceGraphic" in2="BackgroundImageFix" result="shape"/>
<feGaussianBlur stdDeviation="90" result="effect1_foregroundBlur_686_5466"/>
</filter>
<linearGradient id="paint0_linear_686_5466" x1="329.329" y1="-192" x2="249.449" y2="94.6834" gradientUnits="userSpaceOnUse">
<stop stop-color="#FF54A0"/>
<stop offset="1" stop-color="#FF54A0" stop-opacity="0"/>
</linearGradient>
<radialGradient id="paint1_radial_686_5466" cx="0" cy="0" r="1" gradientUnits="userSpaceOnUse" gradientTransform="translate(-106.641 58.5282) rotate(74.2422) scale(278.475 263.527)">
<stop stop-color="#E782F7"/>
<stop offset="0.678431" stop-color="#DE5CB6"/>
<stop offset="1" stop-color="#D63676"/>
</radialGradient>
<radialGradient id="paint2_radial_686_5466" cx="0" cy="0" r="1" gradientUnits="userSpaceOnUse" gradientTransform="translate(88.3987 359.07) rotate(-118.295) scale(385.301 363.418)">
<stop stop-color="#FF7D4B"/>
<stop offset="0.658824" stop-color="#F380A1"/>
<stop offset="1" stop-color="#E782F7"/>
</radialGradient>
<radialGradient id="paint3_radial_686_5466" cx="0" cy="0" r="1" gradientUnits="userSpaceOnUse" gradientTransform="translate(261.417 81.3106) rotate(124.861) scale(307.851 476.295)">
<stop stop-color="#FFDB13"/>
<stop offset="0.541176" stop-color="#FFAC2F"/>
<stop offset="1" stop-color="#FF7D4B"/>
</radialGradient>
</defs>
</svg>
