<svg width="36" height="36" viewBox="0 0 36 36" fill="none" xmlns="http://www.w3.org/2000/svg">
<circle cx="18" cy="18" r="18" fill="#3A9CF8" fill-opacity="0.1"/>
<path d="M16.5427 23.5777C17.0369 23.0834 17.5312 22.5892 18.0254 22.0949C18.9851 21.1353 19.947 20.1733 20.9067 19.2137C21.5495 18.5709 22.1922 17.9282 22.8327 17.2876C22.9369 17.1835 23.0389 17.0749 23.1297 16.9574C23.2472 16.8067 23.3647 16.656 23.4622 16.4897C23.5575 16.3235 23.6306 16.1484 23.7038 15.9711C23.8257 15.6741 23.8811 15.3749 23.921 15.058C24.0717 13.8899 23.5597 12.6266 22.6311 11.8996C22.1435 11.5184 21.5871 11.2325 20.9688 11.1416C20.3482 11.0508 19.7077 11.0729 19.1181 11.3034C18.6239 11.4985 18.185 11.7622 17.8038 12.139C17.7573 12.1855 17.7107 12.2321 17.6642 12.2786C16.9948 12.948 16.3255 13.6173 15.6561 14.2867C14.6854 15.2574 13.7124 16.2304 12.7416 17.2012C12.0922 17.8506 11.4428 18.5 10.7934 19.1494C10.3878 19.555 10.0177 20.0049 9.75836 20.5213C9.21978 21.5852 9.06463 22.7709 9.29292 23.939C9.50569 25.0294 10.1285 26.0822 10.9884 26.787C11.4827 27.1926 12.008 27.4962 12.6108 27.7135C13.1272 27.8996 13.688 27.9905 14.2354 27.9994C14.7873 28.0082 15.3569 27.924 15.88 27.7489C16.4917 27.545 17.0236 27.2436 17.529 26.8468C17.7639 26.6629 17.97 26.4501 18.1784 26.2418C18.912 25.5082 19.6456 24.7745 20.3792 24.0409C21.3433 23.0768 22.3053 22.1149 23.2694 21.1508C23.8434 20.5767 24.4175 20.0027 24.9915 19.4286C26.3235 18.0966 27.0771 16.2371 26.9729 14.3487C26.9131 13.2427 26.5962 12.1501 26.0177 11.2015C25.4281 10.2329 24.5815 9.4062 23.5907 8.85433C22.6244 8.31575 21.5273 8.02097 20.4213 8.00102C19.3043 7.98107 18.1939 8.25369 17.2032 8.76567C16.5804 9.08705 16.0196 9.52589 15.5254 10.0201C15.2882 10.2573 15.0533 10.4922 14.8161 10.7294C13.9118 11.6337 13.0076 12.5379 12.1055 13.44C11.2854 14.2601 10.4676 15.0779 9.64754 15.898C9.51677 16.0287 9.38601 16.1595 9.25524 16.2903C8.92722 16.6183 8.90284 17.2211 9.25524 17.5447C9.60986 17.8705 10.1595 17.8949 10.5097 17.5447C10.7358 17.3187 10.9596 17.0948 11.1857 16.8687C11.7199 16.3346 12.2562 15.7982 12.7904 15.2641C13.4242 14.6302 14.0581 13.9963 14.692 13.3624C15.2129 12.8416 15.7337 12.3207 16.2546 11.7999C16.5139 11.5406 16.7688 11.2724 17.0391 11.0242C17.1566 10.9156 17.2807 10.8136 17.4071 10.7161C17.3472 10.7626 17.2874 10.8092 17.2275 10.8557C17.6176 10.5565 18.0409 10.3083 18.4909 10.1154C18.4199 10.1443 18.349 10.1753 18.2781 10.2041C18.7591 10.0024 19.2622 9.86499 19.7786 9.79407C19.701 9.80515 19.6212 9.81623 19.5437 9.8251C20.0578 9.75861 20.5765 9.75861 21.0885 9.8251C21.0109 9.81402 20.9311 9.80293 20.8535 9.79407C21.3699 9.86499 21.8731 10.0002 22.354 10.2041C22.2831 10.1753 22.2122 10.1443 22.1412 10.1154C22.5934 10.3083 23.0167 10.5565 23.4046 10.8557C23.3447 10.8092 23.2849 10.7626 23.225 10.7161C23.6151 11.0197 23.9653 11.3699 24.269 11.76C24.2224 11.7002 24.1759 11.6403 24.1293 11.5805C24.4285 11.9705 24.6768 12.3939 24.8696 12.8438C24.8408 12.7729 24.8098 12.702 24.7809 12.631C24.9826 13.112 25.12 13.6151 25.191 14.1315C25.1799 14.0539 25.1688 13.9742 25.1599 13.8966C25.2264 14.4108 25.2264 14.9294 25.1599 15.4414C25.171 15.3638 25.1821 15.284 25.191 15.2065C25.12 15.7229 24.9848 16.226 24.7809 16.7069C24.8098 16.636 24.8408 16.5651 24.8696 16.4942C24.6768 16.9463 24.4285 17.3696 24.1293 17.7575C24.1759 17.6977 24.2224 17.6378 24.269 17.578C23.9542 17.9836 23.5775 18.336 23.214 18.6995C22.6355 19.2779 22.057 19.8564 21.4785 20.4349C20.7538 21.1596 20.029 21.8844 19.3043 22.6091C18.6859 23.2275 18.0653 23.8481 17.447 24.4665C17.1854 24.728 16.9239 24.9917 16.6601 25.2533C16.5316 25.3818 16.3942 25.5015 16.2501 25.6145C16.31 25.568 16.3698 25.5215 16.4296 25.4749C16.1482 25.6899 15.8401 25.8694 15.5143 26.0091C15.5852 25.9802 15.6561 25.9492 15.7271 25.9204C15.3791 26.0667 15.0134 26.1664 14.6388 26.2196C14.7164 26.2085 14.7962 26.1975 14.8738 26.1886C14.4903 26.2396 14.1047 26.2396 13.7212 26.1886C13.7988 26.1997 13.8786 26.2108 13.9562 26.2196C13.5816 26.1664 13.2159 26.0667 12.8679 25.9204C12.9389 25.9492 13.0098 25.9802 13.0807 26.0091C12.7549 25.8694 12.4468 25.6899 12.1653 25.4749C12.2252 25.5215 12.285 25.568 12.3449 25.6145C12.0567 25.3907 11.7974 25.1314 11.5736 24.8432C11.6201 24.9031 11.6667 24.9629 11.7132 25.0228C11.4982 24.7413 11.3187 24.4332 11.1791 24.1074C11.2079 24.1783 11.2389 24.2493 11.2677 24.3202C11.1214 23.9722 11.0217 23.6065 10.9685 23.2319C10.9796 23.3095 10.9907 23.3893 10.9995 23.4669C10.9486 23.0834 10.9486 22.6978 10.9995 22.3144C10.9884 22.3919 10.9774 22.4717 10.9685 22.5493C11.0217 22.1747 11.1214 21.809 11.2677 21.4611C11.2389 21.532 11.2079 21.6029 11.1791 21.6738C11.3187 21.348 11.4982 21.04 11.7132 20.7585C11.6667 20.8183 11.6201 20.8782 11.5736 20.938C11.8573 20.5723 12.2097 20.2531 12.5355 19.9251C13.1117 19.3489 13.688 18.7726 14.2642 18.1963C14.9779 17.4827 15.6894 16.7712 16.403 16.0575C17.017 15.4436 17.6287 14.8319 18.2426 14.218C18.5175 13.9431 18.7923 13.6661 19.0693 13.3912C19.1536 13.307 19.2422 13.2294 19.3375 13.1563C19.2777 13.2029 19.2178 13.2494 19.158 13.2959C19.342 13.1563 19.5392 13.0411 19.752 12.9502C19.6811 12.979 19.6101 13.01 19.5392 13.0388C19.7564 12.948 19.9847 12.8859 20.2174 12.8527C20.1399 12.8637 20.0601 12.8748 19.9825 12.8837C20.2352 12.8504 20.49 12.8504 20.7405 12.8837C20.6629 12.8726 20.5831 12.8615 20.5056 12.8527C20.7383 12.8859 20.9643 12.948 21.1838 13.0388C21.1128 13.01 21.0419 12.979 20.971 12.9502C21.1838 13.0411 21.381 13.1563 21.565 13.2959C21.5051 13.2494 21.4453 13.2029 21.3855 13.1563C21.5738 13.3026 21.7401 13.4688 21.8864 13.6572C21.8398 13.5974 21.7933 13.5375 21.7467 13.4777C21.8864 13.6616 22.0016 13.8589 22.0925 14.0717C22.0637 14.0007 22.0326 13.9298 22.0038 13.8589C22.0947 14.0761 22.1568 14.3044 22.19 14.5371C22.1789 14.4595 22.1678 14.3797 22.159 14.3022C22.1922 14.5548 22.1922 14.8097 22.159 15.0602C22.1701 14.9826 22.1811 14.9028 22.19 14.8252C22.1568 15.058 22.0947 15.284 22.0038 15.5034C22.0326 15.4325 22.0637 15.3616 22.0925 15.2907C22.0016 15.5034 21.8864 15.7007 21.7467 15.8847C21.7933 15.8248 21.8398 15.765 21.8864 15.7051C21.6581 15.9999 21.3677 16.2548 21.1062 16.5185C20.6053 17.0194 20.1044 17.5203 19.6035 18.0213C18.9807 18.6441 18.3601 19.2646 17.7373 19.8874C17.1943 20.4304 16.6491 20.9757 16.1061 21.5187C15.8401 21.7847 15.5697 22.0462 15.3082 22.3166C15.3037 22.321 15.3015 22.3232 15.2971 22.3277C14.9691 22.6557 14.9447 23.2585 15.2971 23.5821C15.6428 23.9035 16.1925 23.9301 16.5427 23.5777Z" fill="#5F9CF7"/>
</svg>
