<svg width="22" height="22" viewBox="0 0 22 22" fill="none" xmlns="http://www.w3.org/2000/svg">
<path fill-rule="evenodd" clip-rule="evenodd" d="M14.6667 0C18.7168 0 22 3.28325 22 7.33333V14.6667C22 18.7168 18.7168 22 14.6667 22H7.33333C3.28325 22 0 18.7168 0 14.6667V7.33333C0 3.28325 3.28325 0 7.33333 0H14.6667Z" fill="#FE8862"/>
<path fill-rule="evenodd" clip-rule="evenodd" d="M15.8264 7.29289L10.4841 12.6352L7.9073 10.0583C7.51678 9.6678 6.88361 9.6678 6.49309 10.0583C6.10256 10.4488 6.10256 11.082 6.49309 11.4725L9.77704 14.7565C10.1676 15.147 10.8007 15.147 11.1913 14.7565L17.2406 8.70711C17.6312 8.31658 17.6312 7.68342 17.2406 7.29289C16.8501 6.90237 16.2169 6.90237 15.8264 7.29289Z" fill="white"/>
</svg>
