<svg width="66" height="76" viewBox="0 0 66 76" fill="none" xmlns="http://www.w3.org/2000/svg">
<ellipse cx="33" cy="68" rx="9" ry="3" fill="black" fill-opacity="0.25"/>
<g filter="url(#filter0_d_385_129)">
<path d="M30.1548 60.7951C31.7261 62.4016 34.2738 62.4016 35.8451 60.7951L50.6777 45.6312C54.174 42.0567 56.555 37.5026 57.5196 32.5448C58.4843 27.5869 57.9892 22.4479 56.097 17.7777C54.2048 13.1075 51.0005 9.1158 46.8893 6.30739C42.778 3.49898 37.9445 2 33 2C28.0555 2 23.222 3.49898 19.1108 6.30739C14.9995 9.1158 11.7952 13.1075 9.90302 17.7777C8.01083 22.4479 7.51575 27.5869 8.48038 32.5448C9.44501 37.5026 11.826 42.0567 15.3223 45.6312L30.1548 60.7951Z" fill="white"/>
<path d="M34.9158 59.8861C33.8544 60.9713 32.1455 60.9713 31.0841 59.8861L16.2517 44.7221C12.9349 41.3313 10.6731 37.0077 9.75645 32.2965C8.8398 27.5852 9.3105 22.7021 11.1079 18.2659C12.9052 13.8299 15.9469 10.043 19.844 7.38084C23.7408 4.71893 28.3191 3.3 33 3.3C37.6809 3.3 42.2592 4.71893 46.156 7.38084C50.0531 10.043 53.0948 13.8299 54.8921 18.2659C56.6895 22.7021 57.1602 27.5852 56.2436 32.2965C55.3269 37.0077 53.0651 41.3313 49.7483 44.7221L34.9158 59.8861Z" stroke="url(#paint0_linear_385_129)" stroke-width="2.6"/>
</g>
<path fill-rule="evenodd" clip-rule="evenodd" d="M21.1898 18.3581C21.3222 15.377 23.8033 13 26.845 13C29.9716 13 32.5061 15.5112 32.5061 18.6087C32.5061 19.3602 32.3562 20.0772 32.0859 20.7327C30.5782 24.8852 29.0082 29.4987 27.3816 33.5488C26.9124 35.0836 25.4748 36.2011 23.7723 36.2011C21.6885 36.2011 20 34.5276 20 32.4635C20 28.5917 20.8265 22.522 21.1908 18.3581H21.1898Z" fill="url(#paint1_radial_385_129)"/>
<path fill-rule="evenodd" clip-rule="evenodd" d="M43.1391 34.238C43.7567 35.1366 44.118 36.2224 44.118 37.3913C44.118 40.4893 41.5835 43 38.4574 43C36.3141 43 34.4492 41.8196 33.4883 40.0798C29.7975 34.7093 25.4066 27.4049 22.1085 21.6804C21.5244 20.7981 21.1846 19.7425 21.1846 18.6087C21.1846 15.5107 23.7191 13 26.8452 13C28.9535 13 30.7919 14.1417 31.7663 15.835C35.4077 21.3353 40.0009 28.5535 43.1391 34.238Z" fill="url(#paint2_radial_385_129)"/>
<path fill-rule="evenodd" clip-rule="evenodd" d="M44.131 37.7777C43.9267 40.6915 41.4766 42.9918 38.4844 42.9918C35.3577 42.9918 32.8237 40.4805 32.8237 37.3831C32.8237 36.7964 32.9152 36.2305 33.0846 35.6992C34.2184 31.363 35.686 26.2737 37.0887 22.0241C37.5589 20.1853 39.2404 18.8247 41.2428 18.8247C43.6094 18.8247 45.5277 20.7255 45.5277 23.0703C45.5277 23.256 45.5157 23.4382 45.4922 23.6174C45.1944 28.3289 44.7032 33.0905 44.1315 37.7777H44.131Z" fill="url(#paint3_radial_385_129)"/>
<defs>
<filter id="filter0_d_385_129" x="0" y="0" width="66" height="76" filterUnits="userSpaceOnUse" color-interpolation-filters="sRGB">
<feFlood flood-opacity="0" result="BackgroundImageFix"/>
<feColorMatrix in="SourceAlpha" type="matrix" values="0 0 0 0 0 0 0 0 0 0 0 0 0 0 0 0 0 0 127 0" result="hardAlpha"/>
<feOffset dy="6"/>
<feGaussianBlur stdDeviation="4"/>
<feColorMatrix type="matrix" values="0 0 0 0 0 0 0 0 0 0 0 0 0 0 0 0 0 0 0.2 0"/>
<feBlend mode="multiply" in2="BackgroundImageFix" result="effect1_dropShadow_385_129"/>
<feBlend mode="normal" in="SourceGraphic" in2="effect1_dropShadow_385_129" result="shape"/>
</filter>
<linearGradient id="paint0_linear_385_129" x1="38.5" y1="51.5" x2="20" y2="14.5" gradientUnits="userSpaceOnUse">
<stop stop-color="#DF63C2"/>
<stop offset="1" stop-color="#FFAE2D"/>
</linearGradient>
<radialGradient id="paint1_radial_385_129" cx="0" cy="0" r="1" gradientUnits="userSpaceOnUse" gradientTransform="translate(22.1406 20.4162) rotate(74.728) scale(16.1561 14.8639)">
<stop stop-color="#E782F7"/>
<stop offset="0.678431" stop-color="#DE5CB6"/>
<stop offset="1" stop-color="#D63676"/>
</radialGradient>
<radialGradient id="paint2_radial_385_129" cx="0" cy="0" r="1" gradientUnits="userSpaceOnUse" gradientTransform="translate(33.116 37.8936) rotate(-117.515) scale(22.2456 20.5978)">
<stop stop-color="#FF7D4B"/>
<stop offset="0.658824" stop-color="#F380A1"/>
<stop offset="1" stop-color="#E782F7"/>
</radialGradient>
<radialGradient id="paint3_radial_385_129" cx="0" cy="0" r="1" gradientUnits="userSpaceOnUse" gradientTransform="translate(42.8502 21.7405) rotate(123.983) scale(17.7153 27.0849)">
<stop stop-color="#FFDB13"/>
<stop offset="0.541176" stop-color="#FFAC2F"/>
<stop offset="1" stop-color="#FF7D4B"/>
</radialGradient>
</defs>
</svg>
