<svg width="196" height="60" viewBox="0 0 196 60" fill="none" xmlns="http://www.w3.org/2000/svg">
<path d="M191.837 40.2669H195.466V18.8555H191.837V40.2669ZM66 40.2669H69.6297V33.8312C69.6297 30.3237 71.5512 28.6461 74.2659 28.6461C77.0411 28.6461 78.2006 29.8966 78.2006 32.7028V40.2669H81.8605V31.6352C81.8605 27.2737 79.4816 24.5285 75.5469 24.5285C73.1067 24.5285 71.002 25.5656 69.5381 27.5174V25.0164H66V40.2669V40.2669ZM83.0485 35.5088C83.0485 38.7114 85.9464 40.7551 89.5453 40.7551C92.3515 40.7551 94.9438 39.5959 96.0725 37.8572V40.2669H99.7022V31.2997C99.7022 26.0232 97.1404 24.5285 92.0157 24.5285C86.404 24.5285 83.6588 26.4501 83.6588 30.3542H87.2882C87.2882 28.89 88.4169 28.1277 91.8634 28.1277C94.9438 28.1277 96.0725 28.8292 96.0725 30.3237L89.3013 31.1776C85.3975 31.6658 83.1706 32.367 83.0485 35.5088V35.5088ZM96.0725 34.3194C95.0965 35.9357 92.6871 37.3083 89.7589 37.3083C88.0511 37.3083 87.1053 36.7591 87.1053 35.7528C87.1053 35.0207 87.7153 34.563 88.9047 34.3499L96.0725 33.2518V34.3194ZM102.019 40.2669H105.649V33.8312C105.649 30.3237 107.57 28.6461 110.285 28.6461C113.06 28.6461 114.219 29.8966 114.219 32.7028V40.2669H117.879V31.6352C117.879 27.2737 115.501 24.5285 111.566 24.5285C109.126 24.5285 107.021 25.5656 105.557 27.5174V25.0164H102.019V40.2669ZM119.007 32.6415C119.007 37.1251 122.575 40.7551 127.73 40.7551C132.854 40.8466 136.575 37.0643 136.483 32.6415C136.575 28.2192 132.854 24.4369 127.73 24.5285C122.575 24.5285 119.007 28.1579 119.007 32.6415ZM132.793 32.6415C132.793 35.2036 130.75 36.6375 127.73 36.6375C124.711 36.6375 122.697 35.2036 122.697 32.6415C122.697 30.0795 124.711 28.6461 127.73 28.6461C130.75 28.6461 132.793 30.0795 132.793 32.6415ZM136.879 32.6415C136.879 37.3083 140.051 40.7551 144.351 40.7551C147.127 40.7551 149.048 39.8093 150.147 37.8877V40.2669H153.746V18.8555H150.086V27.0298C148.988 25.3522 147.188 24.5285 144.687 24.5285C140.051 24.5285 136.879 28.0666 136.879 32.6415V32.6415ZM150.116 32.6415C150.116 35.3565 148.317 37.0036 145.297 37.0036C142.277 37.0036 140.569 35.4173 140.569 32.6415C140.569 29.9271 142.277 28.3411 145.297 28.3411C148.317 28.3411 150.116 29.9271 150.116 32.6415ZM172.411 32.367C172.411 28.0364 169.086 24.5285 163.992 24.5285C158.838 24.5285 155.208 28.0666 155.208 32.6415C155.208 37.0338 158.502 40.7551 164.206 40.7551C168.751 40.7551 172.136 38.4369 172.319 35.0512H168.659C168.415 36.1493 166.555 36.8506 164.145 36.8506C161.339 36.8506 159.448 35.7528 158.929 33.7702H172.411V32.367V32.367ZM158.96 31.2997C159.478 29.4697 161.217 28.4327 163.87 28.4327C166.89 28.4327 168.72 29.561 168.811 31.2997H158.96ZM172.867 35.5088C172.867 38.7114 175.765 40.7551 179.363 40.7551C182.17 40.7551 184.762 39.5959 185.891 37.8572V40.2669H189.52V31.2997C189.52 26.0232 186.958 24.5285 181.834 24.5285C176.222 24.5285 173.477 26.4501 173.477 30.3542H177.106C177.106 28.89 178.235 28.1277 181.682 28.1277C184.762 28.1277 185.891 28.8292 185.891 30.3237L179.119 31.1776C175.216 31.6658 172.989 32.367 172.867 35.5088ZM185.891 34.3194C184.915 35.9357 182.505 37.3083 179.577 37.3083C177.869 37.3083 176.923 36.7591 176.923 35.7528C176.923 35.0207 177.533 34.563 178.723 34.3499L185.891 33.2518V34.3194Z" fill="#37323C"/>
<path fill-rule="evenodd" clip-rule="evenodd" d="M2.37959 10.7172C2.64444 4.75504 7.6065 0.000946045 13.6899 0.000946045C19.9432 0.000946045 25.0122 5.02339 25.0122 11.2183C25.0122 12.7214 24.7124 14.1553 24.1717 15.4664C21.1565 23.7714 18.0163 32.9984 14.7633 41.0984C13.8248 44.1682 10.9495 46.4031 7.54454 46.4031C3.377 46.4031 0 43.0561 0 38.9279C0 31.1843 1.65302 19.045 2.38159 10.7172H2.37959Z" fill="url(#paint0_radial_7_98)"/>
<path fill-rule="evenodd" clip-rule="evenodd" d="M46.2796 42.4759C47.5149 44.2732 48.2375 46.4447 48.2375 48.7827C48.2375 54.9785 43.1685 60 36.9162 60C32.6297 60 28.8999 57.6393 26.9781 54.1596C19.5964 43.4186 10.8146 28.8097 4.21851 17.3607C3.0502 15.5961 2.37061 13.4849 2.37061 11.2173C2.37061 5.02146 7.43961 0 13.6919 0C17.9084 0 21.5852 2.28347 23.5341 5.67006C30.8168 16.6705 40.0034 31.1071 46.2796 42.4759V42.4759Z" fill="url(#paint1_radial_7_98)"/>
<path fill-rule="evenodd" clip-rule="evenodd" d="M48.2653 49.5544C47.8565 55.3819 42.9564 59.9825 36.9719 59.9825C30.7186 59.9825 25.6506 54.9601 25.6506 48.7652C25.6506 47.5918 25.8335 46.46 26.1723 45.3974C28.44 36.725 31.3753 26.5464 34.1806 18.0473C35.121 14.3696 38.484 11.6484 42.4887 11.6484C47.2219 11.6484 51.0586 15.4499 51.0586 20.1397C51.0586 20.511 51.0346 20.8754 50.9877 21.2339C50.392 30.6569 49.4096 40.1799 48.2663 49.5544H48.2653Z" fill="url(#paint2_radial_7_98)"/>
<defs>
<radialGradient id="paint0_radial_7_98" cx="0" cy="0" r="1" gradientUnits="userSpaceOnUse" gradientTransform="translate(4.28122 14.8333) rotate(74.728) scale(32.3122 29.7278)">
<stop stop-color="#E782F7"/>
<stop offset="0.678431" stop-color="#DE5CB6"/>
<stop offset="1" stop-color="#D63676"/>
</radialGradient>
<radialGradient id="paint1_radial_7_98" cx="0" cy="0" r="1" gradientUnits="userSpaceOnUse" gradientTransform="translate(26.2335 49.7872) rotate(-117.515) scale(44.4911 41.1957)">
<stop stop-color="#FF7D4B"/>
<stop offset="0.658824" stop-color="#F380A1"/>
<stop offset="1" stop-color="#E782F7"/>
</radialGradient>
<radialGradient id="paint2_radial_7_98" cx="0" cy="0" r="1" gradientUnits="userSpaceOnUse" gradientTransform="translate(45.7035 17.4801) rotate(123.983) scale(35.4305 54.1698)">
<stop stop-color="#FFDB13"/>
<stop offset="0.541176" stop-color="#FFAC2F"/>
<stop offset="1" stop-color="#FF7D4B"/>
</radialGradient>
</defs>
</svg>
