<svg width="49" height="41" viewBox="0 0 49 41" fill="none" xmlns="http://www.w3.org/2000/svg">
<path d="M24.5046 10.4277C24.7275 10.0942 24.8464 9.70204 24.8464 9.30091C24.8464 8.763 24.6327 8.24712 24.2524 7.86677C23.872 7.48641 23.3561 7.27273 22.8182 7.27273C22.4171 7.27273 22.025 7.39168 21.6914 7.61454C21.3579 7.83739 21.0979 8.15416 20.9444 8.52476C20.7909 8.89536 20.7508 9.30316 20.829 9.69659C20.9073 10.09 21.1004 10.4514 21.3841 10.7351C21.6677 11.0187 22.0291 11.2119 22.4226 11.2901C22.816 11.3684 23.2238 11.3282 23.5944 11.1747C23.965 11.0212 24.2817 10.7612 24.5046 10.4277Z" fill="#6E7B97"/>
<path fill-rule="evenodd" clip-rule="evenodd" d="M25.1025 25.7627C24.968 25.707 24.8455 25.625 24.7425 25.5221L20.197 20.9949L14.6005 15.3983L3.02821 27.042V28.3918C3.02821 29.0594 3.29343 29.6997 3.76552 30.1718C4.23759 30.6439 4.87787 30.9091 5.54549 30.9091H29.1819C29.4787 30.9091 29.7633 31.027 29.9732 31.2369C30.1831 31.4467 30.301 31.7314 30.301 32.0282C30.301 32.325 30.1831 32.6096 29.9732 32.8195C29.7633 33.0294 29.4787 33.1473 29.1819 33.1473H5.54549C4.28427 33.1473 3.07471 32.6462 2.18288 31.7544C1.29106 30.8626 0.790039 29.653 0.790039 28.3918V4.75546C0.790039 3.49423 1.29106 2.28466 2.18288 1.39284C3.07471 0.501019 4.28427 0 5.54549 0H36.4546C37.7158 0 38.9254 0.501019 39.8172 1.39284C40.709 2.28466 41.21 3.49423 41.21 4.75546V21.1191C41.21 21.4159 41.0921 21.7005 40.8823 21.9104C40.6724 22.1203 40.3877 22.2382 40.091 22.2382C39.7942 22.2382 39.5095 22.1203 39.2996 21.9104C39.0898 21.7005 38.9719 21.4159 38.9719 21.1191V19.7697L30.9822 11.78L22.5873 20.21L26.3122 23.9524C26.4152 24.0555 26.497 24.1778 26.5528 24.3125C26.6086 24.4472 26.6373 24.5915 26.6373 24.7373C26.6373 24.883 26.6086 25.0274 26.5528 25.162C26.497 25.2967 26.4152 25.419 26.3122 25.5221C26.2091 25.6252 26.0867 25.707 25.9521 25.7627C25.8174 25.8185 25.6731 25.8472 25.5273 25.8472C25.3816 25.8472 25.2372 25.8185 25.1025 25.7627ZM13.7965 13.0256L3.02821 23.8643V4.75546C3.02821 4.08783 3.29343 3.44755 3.76552 2.97547C4.23759 2.5034 4.87787 2.23818 5.54549 2.23818H36.4546C37.1222 2.23818 37.7625 2.50339 38.2346 2.97547C38.7066 3.44756 38.9719 4.08783 38.9719 4.75546V16.5948L31.7692 9.40945C31.6686 9.30207 31.5469 9.2167 31.4116 9.15874C31.2759 9.10055 31.1295 9.07126 30.9818 9.07272C30.8168 9.07133 30.6652 9.12845 30.5521 9.17692C30.4168 9.2349 30.295 9.3203 30.1944 9.42771L20.9998 18.6223L15.3874 13.0276C15.2868 12.9202 15.165 12.8349 15.0298 12.7769C14.8936 12.7185 14.7466 12.6892 14.5984 12.6909C14.2975 12.6919 14.009 12.8124 13.7965 13.0256Z" fill="#6E7B97"/>
<path d="M43.0191 30.21C43.0191 29.9156 42.9021 29.6333 42.694 29.4251L40.882 27.6132C40.7828 27.4971 40.6546 27.4093 40.5104 27.3588C40.2414 27.2501 39.9406 27.2501 39.6715 27.3588C39.5273 27.4093 39.3991 27.4971 39.2999 27.6132L37.4879 29.4251C37.3848 29.5282 37.3031 29.6506 37.2473 29.7852C37.1915 29.9199 37.1628 30.0642 37.1628 30.21C37.1628 30.3558 37.1915 30.5001 37.2473 30.6348C37.3031 30.7694 37.3848 30.8918 37.4879 30.9949C37.591 31.0979 37.7134 31.1797 37.848 31.2355C37.9827 31.2912 38.127 31.3199 38.2728 31.3199C38.4185 31.3199 38.5629 31.2912 38.6975 31.2355C38.7965 31.1944 38.8889 31.1394 38.9719 31.0721V35.6645C38.9719 35.9613 39.0898 36.246 39.2996 36.4559C39.5095 36.6657 39.7942 36.7836 40.091 36.7836C40.3877 36.7836 40.6724 36.6657 40.8823 36.4559C41.0921 36.246 41.21 35.9613 41.21 35.6645V31.0721C41.4068 31.2317 41.6535 31.3199 41.9091 31.3199C42.2035 31.3199 42.4858 31.203 42.694 30.9949C42.9021 30.7867 43.0191 30.5044 43.0191 30.21Z" fill="#6E7B97"/>
<path fill-rule="evenodd" clip-rule="evenodd" d="M46.0196 26.0996C44.4469 24.527 42.3154 23.6413 40.0914 23.6364C38.4317 23.6364 36.8087 24.1285 35.4287 25.0506C34.0487 25.9727 32.9731 27.2834 32.3379 28.8168C31.7028 30.3502 31.5366 32.0375 31.8604 33.6653C32.1842 35.2932 32.9834 36.7885 34.1571 37.9621C35.3307 39.1357 36.8259 39.9349 38.4538 40.2587C40.0816 40.5825 41.769 40.4164 43.3024 39.7812C44.8358 39.146 46.1464 38.0704 47.0685 36.6904C47.9906 35.3104 48.4828 33.6875 48.4828 32.0277C48.4779 29.8037 47.5922 27.6722 46.0196 26.0996ZM40.091 38.1818C38.8739 38.1818 37.6841 37.8209 36.6722 37.1447C35.6602 36.4686 34.8715 35.5075 34.4057 34.3831C33.94 33.2586 33.8181 32.0214 34.0555 30.8277C34.293 29.634 34.8791 28.5375 35.7397 27.6769C36.6003 26.8163 37.6968 26.2302 38.8904 25.9928C40.0841 25.7553 41.3214 25.8772 42.4458 26.343C43.5703 26.8087 44.5313 27.5974 45.2075 28.6094C45.8837 29.6214 46.2446 30.8111 46.2446 32.0282C46.2446 33.6602 45.5963 35.2254 44.4422 36.3795C43.2882 37.5335 41.723 38.1818 40.091 38.1818Z" fill="#6E7B97"/>
</svg>
