<svg width="14" height="16" viewBox="0 0 14 16" fill="none" xmlns="http://www.w3.org/2000/svg">
<path d="M9.81367 1.51383C9.70233 1.62516 9.55133 1.68771 9.39387 1.68771H4.60487C4.44741 1.68771 4.29641 1.62516 4.18507 1.51383C4.07374 1.40249 4.01119 1.25149 4.01119 1.09403C4.00843 1.01532 4.02189 0.93689 4.05075 0.863611C4.0796 0.790332 4.12324 0.723777 4.17892 0.668088C4.23461 0.612399 4.30117 0.568768 4.37445 0.539912C4.44773 0.511055 4.52616 0.497589 4.60487 0.500354H9.39387C9.47258 0.497589 9.55102 0.511055 9.62429 0.539912C9.69757 0.568768 9.76413 0.612399 9.81982 0.668088C9.87551 0.723777 9.91914 0.790332 9.94799 0.863611C9.97685 0.93689 9.99032 1.01532 9.98755 1.09403C9.98755 1.25149 9.925 1.40249 9.81367 1.51383Z" fill="#F93C47"/>
<path d="M6.02832 11.8586C5.91803 11.9688 5.76989 12.033 5.61401 12.0379C5.45655 12.0379 5.30555 11.9754 5.19421 11.864C5.08288 11.7527 5.02033 11.6017 5.02033 11.4443V7.18956C5.01757 7.11085 5.03103 7.03242 5.05989 6.95914C5.08874 6.88586 5.13237 6.81931 5.18806 6.76362C5.24375 6.70793 5.31031 6.6643 5.38359 6.63544C5.45687 6.60658 5.5353 6.59312 5.61401 6.59588C5.77146 6.59588 5.92247 6.65843 6.0338 6.76977C6.14514 6.8811 6.20769 7.03211 6.20769 7.18956V11.4443C6.20273 11.6001 6.1386 11.7483 6.02832 11.8586Z" fill="#F93C47"/>
<path d="M8.38391 12.0379C8.54136 12.0379 8.69236 11.9754 8.8037 11.864C8.91504 11.7527 8.97758 11.6017 8.97758 11.4443V7.18956C8.98035 7.11085 8.96688 7.03242 8.93802 6.95914C8.90917 6.88586 8.86554 6.81931 8.80985 6.76362C8.75416 6.70793 8.6876 6.6643 8.61433 6.63544C8.54105 6.60658 8.46261 6.59312 8.38391 6.59588C8.22645 6.59588 8.07545 6.65843 7.96411 6.76977C7.85277 6.8811 7.79023 7.03211 7.79023 7.18956V11.4443C7.79518 11.6001 7.85932 11.7483 7.9696 11.8586C8.07988 11.9688 8.22802 12.033 8.38391 12.0379Z" fill="#F93C47"/>
<path fill-rule="evenodd" clip-rule="evenodd" d="M0.805946 3.11191H13.194C13.2727 3.10914 13.3512 3.12261 13.4245 3.15147C13.4977 3.18032 13.5643 3.22395 13.62 3.27964C13.6757 3.33533 13.7193 3.40189 13.7482 3.47517C13.777 3.54845 13.7905 3.62688 13.7877 3.70559C13.7877 3.86304 13.7252 4.01405 13.6138 4.12538C13.5025 4.23672 13.3515 4.29927 13.194 4.29927H12.3035V13.719C12.3035 13.9529 12.2575 14.1845 12.1679 14.4005C12.0784 14.6166 11.9473 14.813 11.7819 14.9783C11.6165 15.1437 11.4201 15.2749 11.2041 15.3644C10.988 15.4539 10.7564 15.5 10.5225 15.5H3.4775C3.24361 15.5 3.01201 15.4539 2.79593 15.3644C2.57984 15.2749 2.3835 15.1437 2.21812 14.9783C1.88411 14.6443 1.69646 14.1913 1.69646 13.719V4.29927H0.805946C0.648493 4.29927 0.497488 4.23672 0.386152 4.12538C0.274816 4.01405 0.212268 3.86304 0.212268 3.70559C0.209503 3.62688 0.222969 3.54845 0.251826 3.47517C0.280683 3.40189 0.324313 3.33533 0.380002 3.27964C0.435691 3.22395 0.502247 3.18032 0.575526 3.15147C0.648805 3.12261 0.727239 3.10914 0.805946 3.11191ZM11.0766 13.9494C11.1055 13.8761 11.1189 13.7977 11.1162 13.719V4.29927H2.88382V13.719C2.88106 13.7977 2.89452 13.8761 2.92338 13.9494C2.95224 14.0227 2.99587 14.0892 3.05156 14.1449C3.10724 14.2006 3.1738 14.2442 3.24708 14.2731C3.32036 14.3019 3.39879 14.3154 3.4775 14.3126H10.5225C10.6012 14.3154 10.6796 14.3019 10.7529 14.2731C10.8262 14.2442 10.8927 14.2006 10.9484 14.1449C11.0041 14.0892 11.0477 14.0227 11.0766 13.9494Z" fill="#F93C47"/>
</svg>
