<svg width="30" height="30" viewBox="0 0 30 30" fill="none" xmlns="http://www.w3.org/2000/svg">
<path d="M15.0064 13.3979L12.3104 9.25719C12.1669 9.01185 11.8256 8.94466 11.5492 9.10711C11.2728 9.26879 11.164 9.59914 11.3077 9.84417L13.6504 14.3182C13.2581 15.0606 13.5204 15.9844 14.2553 16.4026C15.0045 16.829 15.9582 16.5674 16.3848 15.8178C16.6586 15.3369 16.6456 14.7732 16.405 14.3173L19.775 7.87786C19.964 7.54579 19.891 7.14785 19.6125 6.98933C19.3334 6.83047 18.954 6.97095 18.765 7.30302L15.0064 13.3979Z" fill="#00C667"/>
<path fill-rule="evenodd" clip-rule="evenodd" d="M30.0009 15C30.0009 6.72908 23.2708 0 15.0006 0C6.73036 0 0.000244141 6.72908 0.000244141 15C0.000244141 23.2706 6.73002 30 15.0006 30C23.2712 30 30.0009 23.2706 30.0009 15ZM14.207 26.1037V27.8466C7.69077 27.4483 2.46892 22.1835 2.14325 15.6486H3.89655C4.29456 15.6486 4.61712 15.3257 4.61712 14.9277C4.61712 14.5297 4.29456 14.2068 3.89655 14.2068H2.15329C2.55198 7.69087 7.8164 2.46902 14.3517 2.14301V3.89562C14.3517 4.29362 14.6749 4.61653 15.0729 4.61653C15.4709 4.61653 15.7935 4.29362 15.7935 3.89562V2.15339C22.3097 2.55139 27.5323 7.81615 27.8579 14.3514H26.1046C25.7066 14.3514 25.3834 14.6743 25.3834 15.0723C25.3834 15.4703 25.7066 15.7932 26.1046 15.7932H27.8472C27.4492 22.3091 22.1841 27.5313 15.6488 27.857V26.1037C15.6488 25.7057 15.3263 25.3828 14.9283 25.3828C14.5303 25.3828 14.207 25.7057 14.207 26.1037Z" fill="#00C667"/>
</svg>
