<svg width="14" height="18" viewBox="0 0 14 18" fill="none" xmlns="http://www.w3.org/2000/svg">
<path fill-rule="evenodd" clip-rule="evenodd" d="M6.54482 1.63636H7.363C8.71861 1.63636 9.81754 2.7353 9.81754 4.09091V6.54521H4.09027V4.09091C4.09027 2.7353 5.18921 1.63636 6.54482 1.63636ZM2.45391 6.54521V4.09091C2.45391 1.83156 4.28547 0 6.54482 0H7.363C9.62234 0 11.4539 1.83156 11.4539 4.09091V6.54521H12.2727C13.1765 6.54521 13.9091 7.229 13.9091 8.07249V16.4725C13.9091 17.316 13.1765 17.9998 12.2727 17.9998H1.63636C0.732625 17.9998 0 17.316 0 16.4725V8.07249C0 7.229 0.732625 6.54521 1.63636 6.54521H2.45391Z" fill="#B0B7C8"/>
</svg>
