<svg width="16" height="16" viewBox="0 0 16 16" fill="none" xmlns="http://www.w3.org/2000/svg">
<path fill-rule="evenodd" clip-rule="evenodd" d="M13.4846 0.5C14.0195 0.5 14.533 0.710754 14.9136 1.08661C15.2895 1.46729 15.5003 1.98072 15.5003 2.51568C15.5003 3.05064 15.2895 3.56407 14.9136 3.94475L8.35571 10.5202C8.2676 10.6052 8.15879 10.6657 8.04008 10.6956L6.04114 11.2567L5.76059 11.2917C5.59824 11.2922 5.43798 11.2551 5.29236 11.1833C5.14674 11.1115 5.01971 11.007 4.92121 10.8779C4.82272 10.7489 4.75543 10.5988 4.72461 10.4394C4.69379 10.28 4.70029 10.1156 4.74358 9.95911L5.30469 7.9777C5.33459 7.859 5.39504 7.75018 5.48004 7.66208L12.0555 1.08661C12.4362 0.710754 12.9496 0.5 13.4846 0.5ZM14.0912 2.52445C14.0912 2.36091 14.0277 2.20376 13.9142 2.08608C13.7965 1.97252 13.6393 1.90905 13.4758 1.90905C13.3123 1.90905 13.1551 1.97252 13.0374 2.08608H13.0199L13.8966 2.96281H13.9142C14.0277 2.84514 14.0912 2.68798 14.0912 2.52445ZM6.25156 9.73116L7.47898 9.398L12.8972 3.96228L12.0204 3.08555L6.60225 8.52127L6.25156 9.73116Z" fill="#ABB4CD"/>
<path d="M1.21876 14.7817C0.75839 14.3214 0.499756 13.697 0.499756 13.0459V4.226C0.499756 3.57494 0.75839 2.95054 1.21876 2.49017C1.67913 2.02979 2.30353 1.77116 2.9546 1.77116H5.7952C5.98122 1.77116 6.15962 1.84505 6.29115 1.97659C6.42269 2.10812 6.49658 2.28652 6.49658 2.47254C6.49658 2.65856 6.42269 2.83696 6.29115 2.96849C6.15962 3.10003 5.98122 3.17392 5.7952 3.17392H2.9546C2.67557 3.17393 2.40797 3.28477 2.21067 3.48207C2.01337 3.67937 1.90252 3.94697 1.90252 4.226V13.0459C1.90252 13.3249 2.01337 13.5925 2.21067 13.7898C2.40797 13.9871 2.67557 14.098 2.9546 14.098H11.7745C12.0535 14.098 12.3211 13.9871 12.5184 13.7898C12.7157 13.5925 12.8266 13.3249 12.8266 13.0459V10.2053C12.8266 10.0193 12.9005 9.84087 13.032 9.70934C13.1635 9.5778 13.3419 9.50391 13.5279 9.50391C13.714 9.50391 13.8924 9.5778 14.0239 9.70934C14.1554 9.84087 14.2293 10.0193 14.2293 10.2053V13.0459C14.2293 13.697 13.9707 14.3214 13.5103 14.7817C13.05 15.2421 12.4256 15.5007 11.7745 15.5007H2.9546C2.30353 15.5007 1.67913 15.2421 1.21876 14.7817Z" fill="#ABB4CD"/>
</svg>
