<svg width="16" height="8" viewBox="0 0 16 8" fill="none" xmlns="http://www.w3.org/2000/svg">
<path fill-rule="evenodd" clip-rule="evenodd" d="M14.7551 0.245535C15.0842 0.572914 15.0842 1.1037 14.7551 1.43108L8.39944 7.75399C8.07036 8.08137 7.53682 8.08137 7.20774 7.75399C6.87867 7.42661 6.87867 6.89583 7.20774 6.56845L13.5634 0.245535C13.8925 -0.0818449 14.426 -0.0818449 14.7551 0.245535Z" fill="#FE8862"/>
<path fill-rule="evenodd" clip-rule="evenodd" d="M10.9586 0.245535C11.2877 0.572914 11.2877 1.1037 10.9586 1.43108L4.60291 7.75399C4.27387 8.08133 3.74041 8.08138 3.41132 7.75409L0.246911 4.60709C-0.0822228 4.27977 -0.0823154 3.74898 0.246704 3.42155C0.575723 3.09411 1.10926 3.09402 1.4384 3.42134L4.00696 5.97578L9.7669 0.245535C10.096 -0.0818449 10.6295 -0.0818449 10.9586 0.245535Z" fill="#FE8862"/>
</svg>
