<svg width="30" height="36" viewBox="0 0 30 36" fill="none" xmlns="http://www.w3.org/2000/svg">
<path fill-rule="evenodd" clip-rule="evenodd" d="M11.1745 10.1435C10.8818 10.6473 10.5 11.3045 10.1788 12.0505C9.91405 12.6656 9.72324 13.1617 9.5817 13.5615C9.93611 13.5704 10.2931 13.5947 10.6519 13.636C11.2898 13.7098 11.9092 13.8327 12.5063 14.0009C13.6552 11.0052 15.6265 8.18627 18.5988 7.05869L18.7076 7.01725C19.1252 6.8578 19.6328 6.66394 20.1407 6.62106C19.2808 9.56866 18.5988 12.0377 18.5834 15.1335L18.583 15.2027C19.5146 15.0287 20.4815 14.966 21.4672 15.0277C21.5341 12.419 22.28 9.39297 22.9745 7.34914C23.0294 7.18771 23.1117 6.98088 23.2025 6.75266C23.47 6.08054 23.8113 5.22294 23.7433 4.79355C23.3797 2.50025 18.3819 4.09362 17.2786 4.51985C17.1262 4.38024 16.9734 4.20759 16.8273 4.04245C16.7749 3.98332 16.7234 3.92515 16.6731 3.86981C16.5131 3.69358 16.3672 3.55643 16.2104 3.40899C16.1471 3.34951 16.0821 3.28835 16.0136 3.22227C14.5871 1.8463 12.3798 0.766826 10.3504 0.302465C8.72767 -0.0688815 7.28431 -0.0564082 5.80051 0.116079C4.3895 0.280013 3.1965 0.734752 2.11196 1.20695C1.95826 1.27385 1.817 1.35546 1.67389 1.43815C1.55549 1.50656 1.43583 1.57569 1.30683 1.63782C-0.765348 2.63493 0.663512 4.22339 1.72957 5.40853L1.7627 5.44536C2.13439 5.85841 2.68989 6.36696 3.17371 6.73652C4.87295 8.03445 7.02034 9.00345 9.28465 9.27857C9.82802 9.34461 10.2929 9.35278 10.7579 9.36095C11.0281 9.36569 11.2984 9.37044 11.5842 9.38656H11.5857C11.51 9.56621 11.3602 9.82403 11.1745 10.1435ZM3.91193 3.52983C4.28619 4.05014 5.25125 4.75648 5.90382 5.16739C6.71741 5.67986 7.79166 6.10181 8.82399 6.3331C9.86736 6.56653 11.0059 6.62747 11.9956 6.5145C12.5861 6.44714 13.4383 6.28 13.9985 6.08542L14.5967 5.81956C14.4426 5.68504 14.3022 5.55763 14.1662 5.43424C13.7017 5.01269 13.2888 4.638 12.5585 4.18699C10.8309 3.12035 8.53907 2.63781 6.51153 2.86376C5.71154 2.95285 4.47921 3.21515 3.91193 3.52983Z" fill="#FF3A55"/>
<path d="M19.6431 34.9386C24.7218 35.525 29.3293 32.0093 29.9341 27.0862C30.539 22.163 26.9122 17.6968 21.8335 17.1104C16.7548 16.5241 12.1473 20.0398 11.5425 24.9629C10.9376 29.886 14.5644 34.3523 19.6431 34.9386Z" fill="#FF3A55"/>
<path d="M13.4645 17.6427C12.3726 16.9445 11.101 16.4748 9.71349 16.3148C4.94996 15.7649 0.62907 19.0621 0.0617995 23.6797C-0.505471 28.2973 2.89595 32.4862 7.65948 33.0361C9.06644 33.1986 10.4344 33.025 11.6789 32.5813C10.0069 30.4096 9.15762 27.6366 9.51423 24.7332C9.86753 21.8551 11.3429 19.3711 13.4645 17.6427Z" fill="#FF3A55"/>
</svg>
