<svg width="37" height="40" viewBox="0 0 37 40" fill="none" xmlns="http://www.w3.org/2000/svg">
<path fill-rule="evenodd" clip-rule="evenodd" d="M2.08004 4.3704C2.08004 4.28354 2.08701 4.20109 2.0965 4.12428C2.10146 3.57083 2.19523 3.12012 2.30498 2.78088C2.4218 2.41999 2.74377 2.16499 3.12122 2.13438C4.23363 2.04433 5.50124 2.34249 6.66676 2.88736C7.83381 3.43295 8.92481 4.23809 9.67719 5.19144C10.972 6.83251 11.5418 9.15194 11.2244 11.3418L11.2246 11.3518V21.1536C11.2246 21.3186 11.2045 21.4785 11.1672 21.6316C12.3724 21.7932 13.3047 22.8299 13.3048 24.0811V26.2153C13.3048 26.8801 13.0401 27.4824 12.6142 27.9257V37.5288C12.6142 38.8917 11.5081 40 10.1477 40H3.15719C1.79687 40 0.690677 38.8917 0.690677 37.5288V27.9256C0.264815 27.4823 0 26.8801 0 26.2153V24.0811C0 22.83 0.93217 21.7934 2.13738 21.6317C2.10014 21.4787 2.08004 21.3187 2.08004 21.1537V4.3704ZM3.95491 21.1536V8.9356C4.05008 9.06489 4.1498 9.19577 4.25434 9.32823C5.88998 11.4014 7.80831 12.309 9.3497 12.4968V21.1536C9.3497 21.2466 9.2737 21.3227 9.18091 21.3227H4.12371C4.03092 21.3227 3.95491 21.2466 3.95491 21.1536ZM1.87467 24.081C1.87467 23.7543 2.14036 23.4881 2.46652 23.4881H10.8381C11.164 23.4881 11.4297 23.7543 11.4297 24.081V26.2152C11.4297 26.5419 11.164 26.8081 10.8381 26.8081H2.46662C2.14047 26.8081 1.87477 26.5418 1.87477 26.2152L1.87467 24.081ZM10.7392 28.6865V37.5287C10.7392 37.8553 10.4735 38.1215 10.1475 38.1215H3.15699C2.83104 38.1215 2.56535 37.8553 2.56535 37.5287V28.6865H10.7392Z" fill="#E044BE"/>
<path fill-rule="evenodd" clip-rule="evenodd" d="M25.5112 7.56155C26.0289 7.56155 26.4486 7.14103 26.4486 6.62234V4.81761C26.4486 4.29892 26.0289 3.87841 25.5112 3.87841C24.9935 3.87841 24.5738 4.29892 24.5738 4.81761V6.62234C24.5738 7.14116 24.9935 7.56155 25.5112 7.56155Z" fill="#E044BE"/>
<path fill-rule="evenodd" clip-rule="evenodd" d="M36.7259 16.4358C36.918 16.2431 37.0169 15.9765 36.9976 15.7051C36.9782 15.4336 36.8421 15.1837 36.6246 15.0204L30.1114 10.1326C30.1826 9.919 30.2221 9.69036 30.2221 9.45198V2.1727C30.2221 0.974318 29.2493 0 28.0532 0H23.0938C21.8977 0 20.9252 0.974484 20.9252 2.1727V9.45208C20.9252 9.67741 20.9601 9.89447 21.024 10.0986L14.4015 15.0177C14.1894 15.1753 14.0534 15.4154 14.0271 15.6788C14.0009 15.942 14.0865 16.2042 14.2633 16.4009C15.6218 17.9114 16.7204 20.0674 17.6021 22.4764C18.4823 24.8816 19.1389 27.5183 19.6233 29.9734C20.5921 34.8838 20.8672 39.043 20.872 39.1194C20.903 39.6143 21.3125 39.9999 21.8076 39.9999H29.2845C29.7946 39.9999 30.211 39.5914 30.2218 39.0805C30.2234 39.0053 30.3278 34.8582 31.2 29.962C31.636 27.5141 32.2627 24.886 33.1611 22.4893C34.0607 20.0894 35.2252 17.9416 36.7259 16.4358ZM22.8 2.1727C22.8 2.01072 22.932 1.87842 23.0937 1.87842H28.0531C28.215 1.87842 28.347 2.01079 28.347 2.1727V9.45208C28.347 9.61409 28.2149 9.74646 28.0531 9.74646H23.0937C22.9321 9.74646 22.8 9.61419 22.8 9.45208V2.1727ZM34.6736 15.9033C33.3836 17.4412 32.2805 19.4564 31.3641 21.9223H19.4022C18.5111 19.4706 17.4811 17.4668 16.3124 15.9367L22.1171 11.6249H28.9724L34.6736 15.9033Z" fill="#E044BE"/>
</svg>
