<svg width="47" height="34" viewBox="0 0 47 34" fill="none" xmlns="http://www.w3.org/2000/svg">
<path fill-rule="evenodd" clip-rule="evenodd" d="M45.2641 12.6208C45.2641 13.3296 45.4318 14.0128 45.7378 14.6413C46.1075 14.4273 46.5822 14.5097 46.8376 14.8631C47.1128 15.2384 47.0298 15.765 46.6527 16.0396L24.1543 32.3932C23.7632 32.6761 23.2331 32.8274 22.7188 32.8274C22.4253 32.8274 22.137 32.7773 21.8811 32.6761L11.0213 28.334V33.5788C11.0213 33.762 10.9027 33.9248 10.7273 33.9807C10.6855 33.9937 10.6427 34 10.5999 34C10.4656 34 10.3356 33.9363 10.2557 33.8204L7.58507 30.0374L5.02514 31.6204C4.8951 31.7003 4.7306 31.7034 4.599 31.6288C4.46531 31.5557 4.38228 31.4153 4.38228 31.2624V25.6795L1.37292 24.4763L1.2314 24.2889C0.425611 23.2205 0 21.9537 0 20.6238C0 19.2944 0.425611 18.0261 1.2314 16.9582L1.23401 16.9598C1.2831 16.894 1.34002 16.8334 1.40896 16.7839L23.9068 0.42971C24.4974 -0.000895381 25.4923 -0.13086 26.18 0.14525L46.4694 8.25682C46.754 8.37217 46.9556 8.63001 46.9927 8.93483C47.0319 9.23912 46.9013 9.54029 46.6527 9.7214L45.9357 10.2413C45.5028 10.9636 45.2641 11.7732 45.2641 12.6208ZM4.38228 23.866L2.44661 23.0921C1.94893 22.3593 1.68626 21.5101 1.68626 20.6238C1.68626 19.8733 1.87948 19.1545 2.23877 18.5037L21.8806 26.3584C22.1276 26.4571 22.4164 26.5098 22.7156 26.5098C23.2488 26.5098 23.7731 26.3517 24.1543 26.0761L44.2035 11.5018C44.1314 11.8687 44.0839 12.2408 44.0839 12.6213C44.0839 13.577 44.3137 14.5019 44.7565 15.336L23.1637 31.0299C23.0211 31.1332 22.6686 31.1776 22.5062 31.1118L11.0213 26.5202V24.3116C11.0213 24.1389 10.9168 23.9844 10.757 23.9202L4.95986 21.6038C4.83087 21.5505 4.68256 21.5678 4.56767 21.6466C4.45121 21.7233 4.38228 21.8548 4.38228 21.9952V23.866ZM37.3076 10.7256L24.664 5.67057L20.0272 9.04026L32.6707 14.0953L37.3076 10.7256Z" fill="#E144A2"/>
</svg>
