<svg width="38" height="34" viewBox="0 0 38 34" fill="none" xmlns="http://www.w3.org/2000/svg">
<path fill-rule="evenodd" clip-rule="evenodd" d="M14.2473 19.8945V17.8438C14.2473 17.2207 14.7457 16.7148 15.3605 16.7148H22.639C22.8465 16.7148 23.041 16.7725 23.2076 16.873C23.2934 16.9248 23.3718 16.9873 23.4407 17.0596C23.6343 17.2627 23.7527 17.5391 23.7527 17.8438V19.8945C30.6941 18.3672 35.7735 13.582 35.7735 7.93066V6.80176H26.8209V4.55859C26.8209 2.04492 24.8043 0 22.3255 0H15.6745C13.1957 0 11.1791 2.04492 11.1791 4.55859V6.80176H2.22649V7.93066C2.22649 13.582 7.3059 18.3672 14.2473 19.8945ZM13.4056 4.55859C13.4056 3.29004 14.4235 2.25781 15.6745 2.25781H22.3255C23.5765 2.25781 24.5939 3.29004 24.5939 4.55859V6.80176H13.4056V4.55859Z" fill="#5C9DFF"/>
<path d="M32.3158 18.4531C29.8895 20.2979 26.9282 21.5791 23.7046 22.2109C23.3791 24.5488 21.3938 26.3535 18.9998 26.3535C16.6057 26.3535 14.6205 24.5488 14.295 22.2109C11.0718 21.5791 8.11001 20.2979 5.68418 18.4531C2.01847 15.665 0 11.9287 0 7.93066V28.4395C0 31.5059 2.45953 34 5.48291 34H32.5171C35.5405 34 38 31.5059 38 28.4395V7.93066C38 11.9287 35.981 15.665 32.3158 18.4531Z" fill="#5C9DFF"/>
<path d="M16.4733 18.9736H21.5253V21.5352C21.5253 22.252 21.233 22.9014 20.763 23.3672C20.3075 23.8184 19.6849 24.0967 18.9993 24.0967C17.6068 24.0967 16.4733 22.9473 16.4733 21.5352V18.9736Z" fill="#5C9DFF"/>
</svg>
