<svg width="41" height="36" viewBox="0 0 41 36" fill="none" xmlns="http://www.w3.org/2000/svg">
<path fill-rule="evenodd" clip-rule="evenodd" d="M30.907 16.6596L30.6489 16.7753L30.7723 17.03C31.1691 17.8491 31.5217 18.792 31.8548 19.8702C32.6141 22.3276 32.7433 22.7138 33.2138 23.7315C33.5805 24.5249 34.0023 25.2438 34.507 25.909L34.718 26.1871L34.9384 25.9163C35.8499 24.7963 36.4333 23.6183 36.5155 22.4839H39.9878C39.8555 25.754 37.377 29.0827 33.6979 31.6345C29.9272 34.2499 24.9601 36 20.1846 36C15.4091 36 10.442 34.2499 6.67123 31.6345C2.9922 29.0827 0.513712 25.754 0.381408 22.4839H3.85365C3.91733 23.3617 4.28108 24.2646 4.86145 25.1438L5.17238 25.6149L8.27097 16.3144L7.35926 14.4901L3.77568 16.2828L0 12.5052L4.39247 3.71586V0L6.4664 0.414993C10.2038 1.16285 13.0674 2.35336 14.9919 3.97641C16.9065 5.591 17.9018 7.64095 17.9018 10.1534C17.9018 10.7048 18.2328 11.2729 18.6492 11.6895C19.0656 12.1061 19.6334 12.4373 20.1846 12.4373H22.1929C24.9711 12.4373 26.8853 12.9078 28.3042 13.917L28.4427 14.0155L28.5925 13.9354C32.6933 11.7431 36.9108 11.9539 41 14.5875L39.0761 17.4747C37.7405 16.6216 36.4231 16.1113 35.1004 15.9568C33.7 15.7933 32.3104 16.0308 30.907 16.6596ZM12.015 16.0482L7.93868 28.2833L8.09938 28.4018C8.51418 28.7075 8.95186 29.0035 9.40894 29.287L9.65364 29.4388L9.79346 29.187C11.1546 26.7353 12.3985 25.0664 13.8451 24.0064C15.2819 22.9536 16.9439 22.4839 19.1804 22.4839C24.1368 22.4839 28.3441 25.5276 29.5816 29.6987L29.6784 30.0251L29.9768 29.8613C30.6531 29.4899 31.2959 29.0905 31.8956 28.6706L32.1351 28.5029L31.9528 28.2743C31.2011 27.332 30.5855 26.3112 30.0663 25.188C29.5053 23.9743 29.365 23.5594 28.5417 20.8949C27.9377 18.9399 27.3949 17.6617 26.4509 16.8945C25.4989 16.1207 24.1919 15.9068 22.1929 15.9068H20.1846C18.7107 15.9068 17.2714 15.2177 16.1971 14.1428C15.1228 13.068 14.4341 11.628 14.4341 10.1534C14.4341 8.85909 13.9329 7.71889 12.8905 6.75241C11.8568 5.79405 10.2976 5.01166 8.18135 4.396L7.96161 4.33207L3.97849 12.3023L8.91009 9.83527L12.015 16.0482ZM12.9125 30.7129L12.7576 30.9884L13.0519 31.1033C15.3085 31.9844 17.7739 32.5305 20.1846 32.5305C22.2021 32.5305 24.2575 32.148 26.1962 31.5073L26.4266 31.4311L26.3792 31.193C25.7901 28.2307 22.8057 25.9534 19.1804 25.9534C17.8285 25.9534 16.7513 26.2425 15.7586 27.0039C14.779 27.7551 13.9031 28.9505 12.9125 30.7129Z" fill="#5893F2"/>
</svg>
