<svg width="44" height="38" viewBox="0 0 44 38" fill="none" xmlns="http://www.w3.org/2000/svg">
<path fill-rule="evenodd" clip-rule="evenodd" d="M16.6381 1.39872C16.6159 0.883808 16.2302 0.454932 15.7179 0.403405L1.17995 0L0 12.7095L8.01408 14.5743L6.17598 34.3729C6.12216 34.9526 6.53219 35.4675 7.09253 35.5238L31.6618 37.995C32.2221 38.0513 32.7246 37.6282 32.7784 37.0485L34.6165 17.25L42.82 17.0163L44 4.30677L29.6622 1.8059C29.1926 1.75866 28.7392 2.05857 28.5922 2.53974C28.1644 3.95674 27.2732 5.14324 26.1229 5.9303C24.9954 6.70295 23.6073 7.09273 22.1451 6.94567C20.6882 6.79914 19.3974 6.13991 18.433 5.15687C17.4584 4.16722 16.8106 2.84823 16.6381 1.39872ZM16.7431 6.94092C15.653 5.83339 14.8556 4.42877 14.46 2.8694L3.36556 2.56154L2.60502 10.7534L8.54256 12.1351C9.72904 12.4111 10.5317 13.5593 10.4153 14.8138L8.71063 33.1748L30.5111 35.3675L32.2153 17.0105C32.3319 15.7546 33.3333 14.7856 34.5502 14.7509L40.623 14.5779L41.3836 6.38556L30.4406 4.47683C29.7638 5.93149 28.7198 7.14874 27.4534 8.01562C25.8755 9.097 23.9372 9.63767 21.912 9.43398C19.892 9.2308 18.0909 8.31398 16.7431 6.94092ZM30.3772 36.809C30.3773 36.8083 30.3774 36.8075 30.3774 36.8067L30.3772 36.809Z" fill="#FAC073"/>
</svg>
