<svg width="36" height="40" viewBox="0 0 36 40" fill="none" xmlns="http://www.w3.org/2000/svg">
<path d="M22.2925 32.6392H13.7572C13.004 32.6392 12.4015 32.0128 12.4015 31.2298C12.4015 30.4467 13.004 29.8203 13.7572 29.8203H22.2925C23.0456 29.8203 23.6481 30.4467 23.6481 31.2298C23.6481 32.0128 23.0456 32.6392 22.2925 32.6392Z" fill="#7381FD"/>
<path d="M5.52205 32.2219C5.77309 32.4829 6.12454 32.6395 6.47599 32.6395C6.82745 32.6395 7.1789 32.4829 7.42994 32.2219C7.68098 31.9608 7.8316 31.5954 7.8316 31.23C7.8316 30.8646 7.68098 30.4992 7.42994 30.2382C6.92786 29.7162 6.02412 29.7162 5.52205 30.2382C5.27101 30.4992 5.12039 30.8646 5.12039 31.23C5.12039 31.5954 5.27101 31.9608 5.52205 32.2219Z" fill="#7381FD"/>
<path fill-rule="evenodd" clip-rule="evenodd" d="M14.9623 9.35742L13.2544 7.58164C12.7021 7.00742 12.7021 6.12 13.2544 5.59798C13.8067 5.07596 14.6602 5.02376 15.1623 5.59798L17.698 8.23436L25.2036 0.430663C25.7559 -0.143554 26.6094 -0.143554 27.1115 0.430663C27.6136 1.00488 27.6638 1.89231 27.1115 2.41432L20.4336 9.35742H32.1831C34.2919 9.35742 35.9989 11.1323 35.9989 13.3247V33.1091C36.0491 35.3016 34.3421 37.0765 32.2333 37.0765H30.0248L30.5265 37.5981C31.0788 38.1723 31.0788 39.0597 30.5265 39.5817C30.2755 39.8427 29.924 39.9993 29.5726 39.9993C29.2211 39.9993 28.8697 39.8427 28.6186 39.5817L26.209 37.0765H9.84044L7.43075 39.5818C7.17971 39.8429 6.82826 39.9995 6.4768 39.9995C6.12535 39.9995 5.7739 39.8429 5.52286 39.5818C4.97057 39.0076 4.97057 38.1202 5.52286 37.5982L6.02465 37.0765H3.81578C1.70706 37.0765 0 35.3016 0 33.1091V13.3247C0 11.1323 1.70706 9.35742 3.81578 9.35742H14.9623ZM26.5965 34.2576H9.48852C9.36866 34.2398 9.24625 34.2398 9.12484 34.2576H3.81578C3.21329 34.2576 2.71122 33.7356 2.71122 33.1091V13.3247C2.71122 12.6983 3.21329 12.1763 3.81578 12.1763H32.1831C32.7856 12.1763 33.2877 12.6983 33.2877 13.3247V33.1091C33.2877 33.7356 32.7856 34.2576 32.1831 34.2576H26.9618C26.8414 34.2396 26.7185 34.2396 26.5965 34.2576Z" fill="#7381FD"/>
</svg>
