<svg width="48" height="40" viewBox="0 0 48 40" fill="none" xmlns="http://www.w3.org/2000/svg">
<path fill-rule="evenodd" clip-rule="evenodd" d="M26.4912 7.0498L26.5024 6.96582L26.5039 6.95703C26.5127 6.8916 26.5215 6.82617 26.5215 6.75879C26.5215 5.5957 25.7339 4.62207 24.6646 4.30762V0H23.2114V4.30762C22.1416 4.62207 21.3545 5.5957 21.3545 6.75879C21.3545 6.80273 21.3579 6.8457 21.3633 6.88867L21.3843 7.0498C14.0479 8.26367 8.43701 14.6133 8.43701 22.2441C8.43701 30.7393 15.3906 37.6504 23.938 37.6504C32.4854 37.6504 39.439 30.7393 39.439 22.2441C39.439 14.6133 33.8276 8.26367 26.4912 7.0498ZM37.5015 22.2402C37.4248 22.6172 36.5078 23.1445 34.8511 23.6299L34.8755 23.1953L34.8906 22.7666L34.896 22.458L34.8975 22.2441C34.8975 21.7764 34.8804 21.3135 34.8506 20.8555C36.5073 21.3389 37.4238 21.8633 37.5015 22.2402ZM23.938 35.7236C23.5581 35.6426 23.0303 34.7314 22.5444 33.0908C23.0034 33.1201 23.4683 33.1367 23.938 33.1367C24.4082 33.1367 24.8726 33.1201 25.3315 33.0908C24.8457 34.7324 24.3179 35.6426 23.938 35.7236ZM23.938 31.2109C23.3008 31.2109 22.6753 31.1797 22.061 31.123C21.9019 30.3389 21.7573 29.459 21.6367 28.4893C21.5688 27.9414 21.5088 27.3652 21.458 26.7617C22.333 26.7998 23.1714 26.8174 23.938 26.8174C24.7046 26.8174 25.543 26.7998 26.4185 26.7617C26.2773 28.4346 26.0645 29.8955 25.8154 31.124C25.2007 31.1797 24.5747 31.2109 23.938 31.2109ZM23.938 24.8916C23.5459 24.8916 23.1616 24.8877 22.7852 24.8809C22.2881 24.8711 21.8042 24.8545 21.3335 24.833C21.2949 24.0107 21.2739 23.1484 21.2739 22.2441C21.2739 21.3389 21.2949 20.4775 21.3335 19.6543C22.1606 19.6172 23.0278 19.5957 23.938 19.5957C24.8481 19.5957 25.7153 19.6172 26.5425 19.6543C26.5806 20.4775 26.6021 21.3389 26.6021 22.2441C26.6021 23.1484 26.5806 24.0107 26.5425 24.833C25.7153 24.8701 24.8481 24.8916 23.938 24.8916ZM10.7334 21.8252C10.8027 21.7744 10.8818 21.7236 10.9702 21.6709C11.1719 21.5518 11.4233 21.4297 11.7231 21.3066C12.0874 21.1572 12.522 21.0059 13.0249 20.8584C12.9951 21.3154 12.9785 21.7764 12.9785 22.2441C12.9785 22.5039 12.9839 22.7627 12.9932 23.0195C13.001 23.2246 13.0117 23.4287 13.0249 23.6318C12.3125 23.4238 11.7368 23.209 11.3057 23.002C11.0483 22.8779 10.8428 22.7568 10.6904 22.6416C10.5054 22.501 10.3989 22.3691 10.3745 22.252C10.3789 22.2295 10.3867 22.2061 10.397 22.1826C10.4185 22.1338 10.4521 22.084 10.498 22.0322C10.5366 21.9893 10.5835 21.9443 10.6387 21.8984L10.7334 21.8252ZM14.9199 21.8799L14.9287 21.5498C14.9429 21.1543 14.9683 20.7637 15.0044 20.3779C16.2397 20.1309 17.7095 19.9189 19.3931 19.7793C19.354 20.6494 19.3359 21.4824 19.3359 22.2441C19.3359 22.7285 19.3433 23.2422 19.3584 23.7764C19.3672 24.0811 19.3784 24.3926 19.3926 24.709C17.709 24.5684 16.2397 24.3574 15.0039 24.1104C14.9473 23.5 14.916 22.877 14.916 22.2441L14.9199 21.8799ZM23.938 9.32715C24.1182 9.32715 24.2939 9.30762 24.4639 9.27344C24.7417 9.71094 25.0439 10.4258 25.3315 11.3975C25.1108 11.3838 24.8887 11.3721 24.6655 11.3643L24.2432 11.3545L23.938 11.3516C23.7671 11.3516 23.5972 11.3535 23.4277 11.3574C23.1304 11.3652 22.835 11.3789 22.542 11.3975C22.646 11.0459 22.7515 10.7275 22.8569 10.4443C22.9541 10.1836 23.0518 9.95117 23.1479 9.74902C23.2358 9.56445 23.3228 9.40527 23.4067 9.27148C23.5781 9.30664 23.7559 9.32715 23.938 9.32715ZM23.938 13.2764C24.5752 13.2764 25.2007 13.3076 25.8149 13.3652C26.0645 14.5928 26.2773 16.0537 26.4185 17.7266C25.9067 17.7041 25.4072 17.6885 24.9277 17.6797L24.5273 17.6729L23.938 17.6699C23.1719 17.6699 22.333 17.6875 21.458 17.7256C21.5991 16.0527 21.8115 14.5928 22.0605 13.3643L22.5132 13.3262L22.8496 13.3057C23.2085 13.2861 23.5713 13.2764 23.938 13.2764ZM31.4014 20.1182C31.9229 20.1982 32.4136 20.2852 32.8721 20.377C32.8979 20.6582 32.9189 20.9424 32.9336 21.2285L32.9512 21.6543L32.958 21.9463L32.9604 22.2441C32.9604 22.877 32.9292 23.499 32.8721 24.1094L32.5098 24.1807L32.0264 24.2666C31.6245 24.3359 31.2017 24.4014 30.7588 24.4619L30.2441 24.5283L29.7705 24.584C29.3569 24.6299 28.9277 24.6719 28.4839 24.709C28.522 23.8389 28.54 23.0059 28.54 22.2441C28.54 21.4824 28.522 20.6494 28.4839 19.7793C28.7603 19.8027 29.0308 19.8281 29.2954 19.8545C29.5884 19.8838 29.8745 19.915 30.1533 19.9482C30.3921 19.9775 30.626 20.0078 30.854 20.0391L31.4014 20.1182ZM34.6157 18.7861C34.5757 18.543 34.5322 18.3018 34.4849 18.0625C34.4209 17.7422 34.3501 17.4268 34.2725 17.1152C34.2012 16.8281 34.1235 16.5459 34.04 16.2676C34.6011 16.6826 35.105 17.1318 35.5435 17.6094C36.0903 18.2051 36.5352 18.8467 36.8618 19.5234C36.1997 19.2402 35.4409 18.9961 34.6157 18.7861ZM32.5757 18.3545C31.98 18.251 31.3682 18.1611 30.7505 18.084C29.9585 17.9844 29.1567 17.9053 28.3657 17.8438C28.3379 17.4873 28.3062 17.1289 28.2705 16.7705C28.167 15.7197 28.0293 14.667 27.8511 13.6582C29.1406 13.916 30.3496 14.2969 31.4468 14.7803C31.5078 14.917 31.5674 15.0557 31.6255 15.1963L31.75 15.5078C31.8042 15.6475 31.8564 15.7881 31.9072 15.9307C32.0122 16.2266 32.1104 16.5283 32.2007 16.8369C32.3452 17.3281 32.4707 17.835 32.5757 18.3545ZM27.417 11.6309C27.2061 10.8115 26.9604 10.0566 26.6748 9.39941C27.9009 9.9834 29.0137 10.9502 29.9512 12.2041C29.1392 11.9629 28.291 11.7725 27.417 11.6309ZM21.2017 9.39844C21.0874 9.66113 20.9795 9.94043 20.8779 10.2324C20.7251 10.6709 20.5859 11.1396 20.4595 11.6309L20.1006 11.6924C19.8813 11.7314 19.6636 11.7734 19.4478 11.8193C18.9282 11.9287 18.4204 12.0566 17.9258 12.2031C18.8618 10.9502 19.9751 9.9834 21.2017 9.39844ZM19.7207 15.7217C19.6353 16.4277 19.5659 17.1396 19.5107 17.8438C18.8062 17.8984 18.0933 17.9668 17.3862 18.0518C16.6797 18.1357 15.9795 18.2363 15.3003 18.3545C15.5591 17.0732 15.9419 15.8711 16.4292 14.7803C17.5259 14.2969 18.7349 13.916 20.0249 13.6582C19.9692 13.9727 19.918 14.291 19.8701 14.6123C19.8159 14.9785 19.7661 15.3496 19.7207 15.7217ZM13.2598 18.7861C12.4351 18.9961 11.6758 19.2402 11.0142 19.5234C11.2222 19.0928 11.478 18.6758 11.7778 18.2754C12.3257 17.5439 13.0205 16.8691 13.8369 16.2676C13.7285 16.627 13.6304 16.9941 13.5425 17.3672C13.4331 17.8311 13.3389 18.3047 13.2598 18.7861ZM13.2598 25.7021C13.4023 26.5713 13.5942 27.4141 13.8364 28.2197C12.5742 27.2881 11.6021 26.1826 11.0142 24.9639C11.3027 25.0879 11.6099 25.2041 11.9331 25.3135C12.3506 25.4551 12.7949 25.584 13.2598 25.7021ZM15.3003 26.1328C16.6602 26.3701 18.1025 26.5361 19.5107 26.6445C19.6201 28.0439 19.7861 29.4775 20.0249 30.8291C18.7349 30.5723 17.5259 30.1914 16.4292 29.707C15.9419 28.6162 15.5591 27.415 15.3003 26.1328ZM20.459 32.8564C20.6704 33.6768 20.916 34.4316 21.2012 35.0898C20.5146 34.7627 19.8633 34.3154 19.2588 33.7656C19.1743 33.6885 19.0903 33.6094 19.0078 33.5283L18.8193 33.3389C18.6836 33.1982 18.5508 33.0527 18.4204 32.9023C18.2505 32.7051 18.085 32.499 17.9248 32.2842C18.7363 32.5254 19.5845 32.7158 20.459 32.8564ZM26.6743 35.0898C26.96 34.4316 27.2061 33.6768 27.4165 32.8564C28.291 32.7148 29.1392 32.5254 29.9502 32.2842C29.0137 33.5381 27.9009 34.5049 26.6743 35.0898ZM28.2686 27.7363C28.3052 27.3711 28.3374 27.0068 28.3657 26.6445C29.2598 26.5762 30.168 26.4834 31.0601 26.3652C31.5728 26.2969 32.0796 26.2197 32.5757 26.1328C32.418 26.9141 32.2144 27.665 31.9692 28.3789C31.8735 28.6562 31.772 28.9287 31.6641 29.1953C31.5942 29.3682 31.5215 29.5391 31.4468 29.707C30.3496 30.1914 29.1406 30.5723 27.8511 30.8291C27.917 30.4551 27.9775 30.0752 28.0327 29.6914L28.1152 29.0859C28.1729 28.6377 28.2236 28.1865 28.2686 27.7363ZM36.0957 25.2607C36.3633 25.167 36.6191 25.0684 36.8618 24.9639C36.2734 26.1826 35.3013 27.2891 34.04 28.2207C34.1616 27.8154 34.27 27.4014 34.3662 26.9795C34.4619 26.5605 34.5449 26.1348 34.6157 25.7021C35.1382 25.5693 35.6338 25.4229 36.0957 25.2607ZM34.1895 14.084C33.7729 13.8252 33.3364 13.582 32.8818 13.3555C32.4536 12.5068 31.9668 11.7217 31.4287 11.0127C32.938 12.0107 34.2344 13.2988 35.2378 14.7988C34.9043 14.5488 34.5547 14.3105 34.1895 14.084ZM22.8081 6.75879C22.8081 6.13965 23.3149 5.63574 23.938 5.63574C24.561 5.63574 25.0684 6.13965 25.0684 6.75879L25.064 6.81738L25.0562 6.88184C24.686 6.85547 24.314 6.83691 23.938 6.83691C23.562 6.83691 23.1899 6.85547 22.8203 6.88184L22.8159 6.85059L22.812 6.81836L22.8081 6.75879ZM16.4468 11.0127C15.9092 11.7227 15.4224 12.5068 14.9946 13.3555C14.1416 13.7803 13.3516 14.2637 12.6377 14.7988C13.6416 13.2988 14.938 12.0107 16.4468 11.0127ZM13.1938 30.0859L13.3843 30.2119C13.8906 30.5439 14.4287 30.8506 14.9946 31.1328C15.4224 31.9814 15.9092 32.7656 16.4473 33.4746C15.9248 33.1289 15.4277 32.749 14.9595 32.3369C14.0752 31.5596 13.2939 30.6699 12.6377 29.6895C12.8184 29.8242 13.0039 29.957 13.1938 30.0859ZM31.4287 33.4746C31.9668 32.7656 32.4536 31.9805 32.8813 31.1328L33.0303 31.0576C33.1514 30.9971 33.2705 30.9336 33.3887 30.8691C33.6143 30.7471 33.835 30.6211 34.0503 30.4902C34.4658 30.2383 34.8623 29.9707 35.2378 29.6895C34.7139 30.4727 34.1099 31.1982 33.437 31.8545C33.3521 31.9365 33.2666 32.0186 33.1797 32.0986C33.0796 32.1914 32.9785 32.2832 32.8755 32.373C32.6958 32.5303 32.5117 32.6826 32.3237 32.8301C32.1602 32.958 31.9937 33.082 31.8242 33.2031C31.6938 33.2959 31.562 33.3867 31.4287 33.4746Z" fill="#AF61EC"/>
<path d="M2.80469 10.9121L4.83984 9.84863L6.87451 10.9121L6.48584 8.66016L8.13232 7.06543L5.85693 6.73633L4.83984 4.6875L3.82275 6.73633L1.54736 7.06543L3.19336 8.66016L2.80469 10.9121Z" fill="#AF61EC"/>
<path d="M6.41357 31.4502L7.81055 34.2646L10.936 34.7168L8.6748 36.9072L9.2085 40L6.41357 38.54L3.61865 40L4.15283 36.9072L1.8916 34.7168L5.01562 34.2646L6.41357 31.4502Z" fill="#AF61EC"/>
<path d="M41.334 10.9121L43.3687 9.84863L45.4038 10.9121L45.0151 8.66016L46.6611 7.06543L44.3862 6.73633L43.3687 4.6875L42.3521 6.73633L40.0762 7.06543L41.7227 8.66016L41.334 10.9121Z" fill="#AF61EC"/>
<path d="M46.6924 16.2334L47.9995 16.4229L47.0542 17.3398L47.2773 18.6338L46.1079 18.0225L44.9385 18.6338L45.1616 17.3398L44.2158 16.4229L45.5239 16.2334L46.1079 15.0566L46.6924 16.2334Z" fill="#AF61EC"/>
<path d="M1.89209 27.0322L3.06152 27.6436L2.83838 26.3496L3.78369 25.4326L2.47656 25.2432L1.89209 24.0664L1.30811 25.2432L0 25.4326L0.946289 26.3496L0.723145 27.6436L1.89209 27.0322Z" fill="#AF61EC"/>
<path d="M41.7949 31.4502L43.1929 34.2646L46.3174 34.7168L44.0562 36.9072L44.5898 40L41.7949 38.54L39.0005 40L39.5337 36.9072L37.2725 34.7168L40.3979 34.2646L41.7949 31.4502Z" fill="#AF61EC"/>
</svg>
