<svg width="46" height="40" viewBox="0 0 46 40" fill="none" xmlns="http://www.w3.org/2000/svg">
<path d="M46 11.7027V15.3691C45.9641 15.4502 45.9364 15.5346 45.9172 15.6212C45.7328 17.0839 45.3134 18.5075 44.6753 19.8375C43.269 22.7347 41.3845 25.3761 39.1003 27.6516C34.4407 32.4821 29.0774 36.4006 23.3691 39.8836C23.2709 39.9591 23.1504 40 23.0264 40C22.9024 40 22.7819 39.9591 22.6837 39.8836C18.0956 37.1536 13.7824 33.9888 9.8043 30.4335C6.94998 27.9284 4.46735 25.0321 2.43085 21.8311C1.31056 20.0732 0.556167 18.1089 0.212448 16.0549C-0.131271 14.0009 -0.0573102 11.899 0.42994 9.87405C2.51824 0.620943 14.0821 -3.16005 21.2854 3.04078C21.9017 3.56782 22.4445 4.18195 23.0609 4.7869C23.0988 4.72351 23.1402 4.6623 23.1851 4.60358C26.4049 1.01508 30.3837 -0.588974 35.1445 0.208471C40.3653 1.07924 43.7875 4.18653 45.4526 9.1866C45.6814 10.0146 45.8641 10.8546 46 11.7027Z" fill="#FF506F"/>
</svg>
