<svg width="40" height="40" viewBox="0 0 40 40" fill="none" xmlns="http://www.w3.org/2000/svg">
<path d="M7.54526 13.3107C7.54526 14.9298 6.15438 16.2423 4.46858 16.2423C2.78278 16.2423 1.39237 14.9298 1.35004 13.3546C1.35004 11.7355 2.74092 10.423 4.42672 10.423C4.54525 10.423 4.66425 10.4328 4.77855 10.4474L4.97517 10.4767L5.14309 10.5109V1.93569C5.14309 1.27944 5.64873 0.75503 6.23905 0.711085L15.1737 0.0108897C15.2358 0.00307716 15.296 -0.000829087 15.3552 0.000147476C15.4042 0.00112404 15.4526 0.00503029 15.4997 0.0128428C15.7047 0.0460459 15.891 0.143702 16.0589 0.31753C16.3115 0.579249 16.438 0.88589 16.438 1.2355V12.6105C16.438 14.2296 15.0472 15.5421 13.3614 15.5421C11.6756 15.5421 10.2847 14.2296 10.2847 12.6105C10.2847 10.9923 11.6756 9.67984 13.3614 9.67984C13.4564 9.67984 13.5514 9.68569 13.6445 9.69644C13.7988 9.71304 13.9465 9.74038 14.0777 9.76675V4.95425L7.54526 5.43569V13.3107Z" fill="#56D2D2"/>
<path d="M16.986 28.0109C17.082 27.9611 17.1836 27.9181 17.2889 27.883C17.462 27.8263 17.6455 27.7921 17.8289 27.7921C18.5585 27.7921 19.2 28.2472 19.4696 28.9113C19.574 29.1681 19.6224 29.4562 19.5989 29.7609C19.557 30.7677 18.6718 31.6427 17.6605 31.5988C17.5156 31.5988 17.3708 31.5841 17.2334 31.547C17.1314 31.5197 17.034 31.4796 16.9441 31.424L16.851 31.383L16.6756 31.3087C16.5848 31.2736 16.4935 31.2414 16.4013 31.214C16.1967 31.1535 15.986 31.1173 15.764 31.1173H15.5533V35.2736C15.5533 35.8859 15.0895 36.3673 14.4996 36.3673H11.4653C11.2964 36.3673 11.128 36.1925 11.128 36.0177C11.128 35.8449 11.1483 35.673 11.1991 35.5001C11.2518 35.3224 11.3369 35.1447 11.4653 34.9669C11.5392 34.8712 11.597 34.7589 11.6384 34.6359C11.6916 34.4796 11.7179 34.3078 11.7179 34.1359C11.8021 33.0861 10.9592 32.1671 9.9479 32.1232C8.89427 32.1232 8.05137 32.9982 8.05137 34.049C8.05137 34.3986 8.13557 34.7052 8.2621 34.9669C8.43049 35.2736 8.51516 35.6671 8.51516 36.0177C8.51516 36.1925 8.34629 36.3673 8.1779 36.3673H5.14309C4.89661 36.3673 4.67225 36.2834 4.49445 36.1408C4.41731 36.0783 4.34864 36.006 4.29125 35.924C4.25268 35.8693 4.21881 35.8107 4.19059 35.7482C4.12568 35.6046 4.08946 35.4445 4.08946 35.2736V31.1173H3.79454C3.61063 31.1173 3.42671 31.1476 3.24797 31.1994C3.05748 31.255 2.87262 31.3332 2.69906 31.424C2.446 31.5548 2.15108 31.6427 1.85616 31.6427C0.802531 31.6427 -0.0403681 30.7677 0.00149461 29.674C0.0438277 28.6232 0.92859 27.7921 1.94035 27.8361C2.19294 27.8361 2.446 27.88 2.65672 28.0109C3.03584 28.1857 3.41543 28.3175 3.83688 28.3175H4.0476V24.1613C4.0476 23.549 4.51091 23.0675 5.10122 23.0675H8.47282V22.8048C8.47282 22.4113 8.34629 22.0177 8.1779 21.6671C8.12757 21.5626 8.0843 21.4523 8.04996 21.3371C8.02738 21.2619 8.00904 21.1847 7.9954 21.1066C7.98411 21.0421 7.97564 20.9757 7.97141 20.9093L7.96718 20.7921C7.96718 20.5353 8.01374 20.2892 8.09888 20.0656C8.20706 19.7804 8.37687 19.5304 8.5923 19.3332C8.92767 19.0255 9.37264 18.8468 9.8637 18.8673C10.8331 18.9113 11.676 19.8302 11.6337 20.88C11.6337 20.9386 11.6313 20.9972 11.6266 21.0558L11.6149 21.1623C11.6083 21.2072 11.6003 21.2521 11.5904 21.296C11.5641 21.4113 11.5236 21.5216 11.4653 21.6232C11.2964 22.0177 11.1699 22.4113 11.1699 22.8488V23.0675H14.5415C14.7729 23.0675 14.9846 23.1417 15.1568 23.2687C15.4239 23.465 15.5951 23.7892 15.5951 24.1613V28.3175H15.8905C16.2696 28.3175 16.6488 28.1857 16.986 28.0109Z" fill="#56D2D2"/>
<path d="M24.3031 9.59976L26.2847 11.1427V12.0001H34.5016C34.2838 8.87417 33.0914 8.10659 30.6883 7.54019V6.38882L33.3501 6.84976C33.3962 6.85757 33.4418 6.85952 33.4865 6.85562C33.5905 6.8478 33.6883 6.80874 33.7697 6.74624C33.8576 6.67788 33.9263 6.58218 33.963 6.46694L34.5133 4.75308C34.5966 4.49429 34.4922 4.21108 34.2645 4.07534L30.4752 1.82827L28.876 0.168116C28.7904 0.079249 28.6812 0.023585 28.5669 0.00600685C28.543 0.0021006 28.5185 0.000147476 28.494 0.000147476C28.4545 -0.000829087 28.415 0.00307716 28.3755 0.0118662C28.3327 0.0206553 28.2904 0.0353037 28.2494 0.0558115C25.5232 1.40835 24.1605 4.3771 24.0829 9.13394C24.081 9.24429 24.1102 9.35073 24.1643 9.44155C24.2 9.5021 24.2471 9.55581 24.3031 9.59976Z" fill="#56D2D2"/>
<path d="M25.1841 16.0001H35.0919C35.6991 16.0001 36.193 15.4875 36.193 14.8576V14.2863C36.193 13.6554 35.6991 13.1427 35.0919 13.1427H25.1841C24.5768 13.1427 24.0829 13.6554 24.0829 14.2863V14.8576C24.0829 15.1945 24.224 15.4972 24.4479 15.7062C24.5067 15.7609 24.5712 15.8097 24.6403 15.8507C24.7203 15.8976 24.8059 15.9347 24.8962 15.9601C24.9879 15.9865 25.0843 16.0001 25.1841 16.0001Z" fill="#56D2D2"/>
<path d="M31.8111 37.5578C31.8487 37.1125 31.884 36.6945 32.1163 36.3234C32.6643 35.5363 33.7179 35.3175 34.5185 35.8419C34.5881 35.8947 34.653 35.9513 34.7132 36.0119C34.8163 36.1144 34.9052 36.2287 34.9795 36.3517C35.3351 36.9367 35.3515 37.7013 34.94 38.2921C34.3501 39.1232 33.2118 40.0421 31.3576 39.9982C31.0627 39.9982 30.9362 39.6925 31.1469 39.4738C31.4376 39.133 31.5919 38.7921 31.6798 38.4582C31.7612 38.1496 31.7866 37.8478 31.8111 37.5578Z" fill="#56D2D2"/>
<path fill-rule="evenodd" clip-rule="evenodd" d="M32.5378 34.3546L32.875 33.7863L36.0778 28.2736C36.2466 28.0109 36.415 27.7921 36.6258 27.5734V21.5363C36.6258 21.3605 36.5416 21.1857 36.415 21.0548C36.3567 20.9943 36.2805 20.9523 36.1987 20.925C36.1032 20.8927 36.0002 20.88 35.9094 20.88H35.7829C31.948 21.3605 28.0284 21.3605 24.1507 20.88H24.0246C23.8557 20.8361 23.645 20.923 23.5185 21.0548C23.3924 21.1857 23.3078 21.3605 23.3078 21.5363V28.4484C23.3078 29.673 23.5185 30.8546 23.9399 31.9484C24.9517 34.5294 27.2697 36.1925 29.9668 36.1925C30.2198 36.1925 30.4305 36.1486 30.6836 36.1486C30.7678 35.9298 30.852 35.755 30.9785 35.5363C31.0773 35.4025 31.1831 35.2785 31.2951 35.1642C31.3995 35.0578 31.5091 34.9591 31.6229 34.8693C31.9061 34.6457 32.2156 34.4738 32.5378 34.3546ZM32.4955 24.9484C33.7598 24.9484 34.1813 26.0421 34.2236 26.6105C34.2236 26.7423 34.1813 26.8292 34.1394 26.9171C34.082 26.9767 34.0242 27.0158 33.9536 27.0353C33.9207 27.0441 33.8845 27.048 33.8445 27.048H31.1469C31.0204 27.048 30.9362 27.005 30.852 26.9171C30.7678 26.8292 30.7255 26.6984 30.7678 26.6105C30.852 26.0421 31.2734 24.9484 32.4955 24.9484ZM25.8365 26.9171C25.7523 26.8292 25.7104 26.6984 25.7523 26.6105C25.7946 26.0421 26.216 24.9484 27.4804 24.9484C28.7447 24.9484 29.1662 26.0421 29.2085 26.6105C29.2085 26.6369 29.2066 26.6613 29.2038 26.6847L29.1925 26.7443C29.1765 26.8087 29.1502 26.8625 29.1239 26.9171C29.0397 27.005 28.9555 27.048 28.8289 27.048H26.1318C26.0749 27.048 25.9987 27.0285 25.9296 26.9884C25.8962 26.9689 25.8642 26.9455 25.8365 26.9171ZM30.0091 32.255C28.8713 32.255 27.9018 31.6417 27.3115 30.6359C27.2203 30.4699 27.2033 30.2785 27.2537 30.1037C27.296 29.9552 27.3868 29.8175 27.5223 29.7169C27.8176 29.5421 28.1968 29.63 28.4075 29.9796C28.5796 30.2697 28.8176 30.5148 29.0989 30.6847C29.3689 30.8478 29.6789 30.9425 30.0091 30.9425C30.6413 30.9425 31.2734 30.5919 31.5684 30.0236C31.7372 29.7169 32.1163 29.5861 32.4536 29.7609C32.7485 29.9357 32.875 30.3292 32.7062 30.6359C32.5594 30.9054 32.3765 31.1466 32.1662 31.3556C31.5914 31.9259 30.8115 32.255 30.0091 32.255Z" fill="#56D2D2"/>
<path d="M37.2579 28.9738C37.7217 28.1857 38.6488 27.9669 39.3652 28.4923C39.8007 28.7853 40.0185 29.2716 39.9988 29.7658C39.9861 30.0841 39.8751 30.4054 39.6601 30.6798L36.0359 35.5363C35.8252 35.2296 35.5721 34.924 35.2349 34.7052C34.94 34.4865 34.5608 34.3546 34.1813 34.2677L37.2579 28.9738Z" fill="#56D2D2"/>
</svg>
