<svg width="47" height="40" viewBox="0 0 47 40" fill="none" xmlns="http://www.w3.org/2000/svg">
<path fill-rule="evenodd" clip-rule="evenodd" d="M1.76934 0.874349C1.85171 0.370168 2.28681 0 2.79708 0H11.2452C11.7555 0 12.1906 0.370213 12.2729 0.874433L14.0277 11.6213C14.077 11.9232 13.9914 12.2315 13.7935 12.4647C13.5957 12.6978 13.3055 12.8321 13 12.8321H8.04606C8.05666 12.8918 8.06219 12.9532 8.06219 13.016L8.06219 37.9147H10.0102C10.5853 37.9147 11.0515 38.3815 11.0515 38.9573C11.0515 39.5332 10.5853 40 10.0102 40H4.03087C3.45572 40 2.98947 39.5332 2.98947 38.9573C2.98947 38.3815 3.45572 37.9147 4.03087 37.9147H5.97941L5.97941 13.016C5.97941 12.9532 5.98494 12.8918 5.99554 12.8321H1.0414C0.73583 12.8321 0.445679 12.6978 0.247814 12.4646C0.0499494 12.2315 -0.0356603 11.9231 0.0136647 11.6212L1.76934 0.874349ZM3.68197 2.08531L2.26697 10.7468H11.7745L10.3602 2.08531H3.68197Z" fill="#F9C643"/>
<path d="M30.1027 19.4378C29.5275 19.4378 29.0613 19.9046 29.0613 20.4804C29.0613 21.0563 29.5275 21.5231 30.1027 21.5231H31.7563C32.3315 21.5231 32.7977 21.0563 32.7977 20.4804C32.7977 19.9046 32.3315 19.4378 31.7563 19.4378H30.1027Z" fill="#F9C643"/>
<path fill-rule="evenodd" clip-rule="evenodd" d="M17.766 15.1464C16.1677 15.1464 14.8628 16.4513 14.8628 18.0532V38.9573C14.8628 39.5331 15.329 39.9999 15.9042 39.9999C16.4793 39.9999 16.9456 39.5331 16.9456 38.9573V36.8141C17.2059 36.8912 17.4813 36.9326 17.766 36.9326H30.9044L30.9127 36.9327L30.9292 36.9329C30.9375 36.9329 30.9457 36.9328 30.954 36.9326H44.0958C44.3806 36.9326 44.6561 36.8911 44.9165 36.814V38.9573C44.9165 39.5331 45.3828 39.9999 45.9579 39.9999C46.5331 39.9999 46.9993 39.5331 46.9993 38.9573V34.089L46.9998 34.06L47 34.0249V18.0532C47 16.4506 45.6935 15.1464 44.0958 15.1464H27.9319V8.76074C27.9319 8.1849 27.4656 7.71808 26.8905 7.71808H21.1953C20.6201 7.71808 20.1539 8.1849 20.1539 8.76074V15.1464H17.766ZM25.8491 15.1464H22.2367V9.80339H25.8491V15.1464ZM21.1747 17.2317H17.766C17.3173 17.2317 16.9456 17.6036 16.9456 18.0532V23.0274H44.9172V18.0532C44.9172 17.6043 44.5453 17.2317 44.0958 17.2317H26.911C26.9042 17.2319 26.8974 17.2319 26.8905 17.2319H21.1953C21.1884 17.2319 21.1815 17.2319 21.1747 17.2317ZM16.9456 34.0249C16.9456 34.4757 17.3176 34.8473 17.766 34.8473H29.8878V25.1127H16.9456V34.0249ZM31.9706 34.8473V25.1127H44.9172V31.5274L44.9167 31.545L44.9165 31.566V34.0587C44.8985 34.4935 44.5336 34.8473 44.0958 34.8473H31.9706Z" fill="#F9C643"/>
</svg>
