<svg width="30" height="40" viewBox="0 0 30 40" fill="none" xmlns="http://www.w3.org/2000/svg">
<path d="M16.8248 10.2888L23.1038 4.8828L19.0522 0H10.9482L6.89658 4.8828L13.1756 10.2888C5.75232 11.1844 0 17.466 0 25.0876C0 33.3236 6.71593 40 15.0002 40C23.2841 40 30 33.3236 30 25.0876C30 17.466 24.2473 11.1844 16.8248 10.2888ZM21.1424 5.0696L16.8043 8.4696L18.1389 5.0696H21.1424ZM18.3787 1.2336L17.9474 4.3088L15.8942 3.3524L18.3787 1.2336ZM14.1062 3.3524L12.0526 4.3088L11.6217 1.2336L14.1062 3.3524ZM8.85801 5.0696H11.8611L13.1961 8.4696L8.85801 5.0696ZM15.0002 36.2104C8.83105 36.2104 3.81181 31.2204 3.81181 25.0872C3.81181 18.954 8.83105 13.9644 15.0002 13.9644C21.1693 13.9644 26.1886 18.9544 26.1886 25.0876C26.1886 31.2208 21.1693 36.2104 15.0002 36.2104Z" fill="#F3D019"/>
</svg>
