<svg width="38" height="38" viewBox="0 0 38 38" fill="none" xmlns="http://www.w3.org/2000/svg">
<path fill-rule="evenodd" clip-rule="evenodd" d="M21.5645 30.8271C21.4697 31.0166 21.3271 31.207 21.1846 31.3965C21.3745 31.3018 21.5645 31.2539 21.7544 31.207L22.5146 33.1064C20.8047 33.6768 18.9521 34.0088 17.0044 34.0088C7.59961 34.0088 0 26.4092 0 17.0049C0 7.59961 7.59961 0 17.0044 0C26.4092 0 34.0093 7.59961 34.104 16.8623C34.104 18.8096 33.772 20.6621 33.2017 22.3721L31.3018 21.6123C31.3633 21.5205 31.4048 21.4082 31.4395 21.29C31.4585 21.2246 31.4751 21.1572 31.4917 21.0898C31.3965 21.1611 31.3018 21.2207 31.207 21.2793C31.1118 21.3389 31.0166 21.3984 30.9219 21.4697L28.4995 20.4717C30.7319 19.4268 32.062 18.0967 32.062 16.9092C32.062 15.7217 30.6367 14.3447 28.2617 13.252C27.1221 12.7773 25.8867 12.3496 24.5571 12.0176C24.7944 13.585 24.8896 15.2471 24.8896 16.957C24.8896 17.6699 24.8896 18.3818 24.8418 19.0469L22.8472 18.2393V17.0049C22.8472 15.1523 22.7046 13.3477 22.4194 11.6377C20.7095 11.3525 18.9048 11.21 17.0522 11.21C15.1997 11.21 13.3945 11.3525 11.6846 11.6377C11.3999 13.3477 11.2573 15.1523 11.2573 17.0049C11.2573 18.8574 11.3999 20.6621 11.6846 22.3721C13.3945 22.6572 15.1997 22.7998 17.0522 22.7998H18.3345L19.1421 24.7949C18.4771 24.8418 17.7646 24.8418 17.0522 24.8418C16.0269 24.8418 15.0186 24.8076 14.0376 24.7295C13.3828 24.6768 12.7397 24.6045 12.1123 24.5098C12.2959 25.3965 12.5386 26.2246 12.8276 26.9941C12.9873 27.4189 13.1611 27.8262 13.3472 28.2148C14.4395 30.5889 15.8174 32.0146 17.0044 32.0146C18.1445 32.0146 19.4746 30.6846 20.5669 28.4043L21.5645 30.8271ZM31.397 12.8252C30.6841 10.4023 29.4019 8.21777 27.5967 6.41211C25.7446 4.60742 23.5596 3.3252 21.1846 2.6123C22.4668 4.37012 23.5122 6.8877 24.1294 9.87988C27.1221 10.5449 29.6392 11.542 31.397 12.8252ZM20.6621 5.84277C19.5693 3.46777 18.1919 2.04199 17.0044 2.04199C15.7695 2.04199 14.3921 3.46777 13.2524 5.84277C12.7773 6.98242 12.3496 8.21777 12.0171 9.54688C13.5845 9.30957 15.2471 9.21484 16.957 9.21484C18.667 9.21484 20.3296 9.30957 21.897 9.54688C21.6118 8.16992 21.1846 6.93457 20.6621 5.84277ZM12.8247 2.6123C10.4023 3.3252 8.21729 4.60742 6.4126 6.41211C4.60742 8.26465 3.32471 10.4502 2.6123 12.8252C4.37012 11.542 6.88721 10.4971 9.87988 9.87988C10.5449 6.8877 11.5425 4.37012 12.8247 2.6123ZM9.54736 12.1123C8.16992 12.3975 6.93506 12.8252 5.84229 13.3477C3.46729 14.4395 2.04248 15.9121 2.04248 17.0996C2.04248 17.6328 2.32959 18.2041 2.86084 18.7705C3.51318 19.4668 4.5332 20.1553 5.84229 20.7568C6.98242 21.2324 8.21729 21.6592 9.54736 21.9922C9.30957 20.4248 9.21484 18.7617 9.21484 17.0518C9.21484 15.3418 9.30957 13.6797 9.54736 12.1123ZM2.6123 21.1846C3.32471 23.6074 4.60742 25.792 6.4126 27.5967C8.21729 29.4014 10.4497 30.6846 12.8247 31.3965C11.5425 29.6396 10.4971 27.1221 9.87988 24.1299C6.88721 23.4648 4.37012 22.4668 2.6123 21.1846Z" fill="#9ED954"/>
<path d="M37.9995 25.6494L30.1147 27.5967L36.0044 33.5342C36.3369 33.8193 36.3369 34.3418 36.0044 34.6748L34.6743 36.0049C34.3896 36.3369 33.8672 36.3369 33.5347 36.0049L27.6445 30.1143L25.6499 37.999L17.0049 17.0049L37.9995 25.6494Z" fill="#9ED954"/>
</svg>
