<svg width="32" height="8" viewBox="0 0 32 8" fill="none" xmlns="http://www.w3.org/2000/svg">
<path d="M8 4C8 6.20898 6.20898 8 4 8C1.79102 8 0 6.20898 0 4C0 1.79102 1.79102 0 4 0C6.20898 0 8 1.79102 8 4Z" fill="#272931" fill-opacity="0.2"/>
<path d="M20 4C20 6.20898 18.209 8 16 8C13.791 8 12 6.20898 12 4C12 1.79102 13.791 0 16 0C18.209 0 20 1.79102 20 4Z" fill="#272931" fill-opacity="0.2"/>
<path d="M28 8C30.209 8 32 6.20898 32 4C32 1.79102 30.209 0 28 0C25.791 0 24 1.79102 24 4C24 6.20898 25.791 8 28 8Z" fill="#272931" fill-opacity="0.2"/>
</svg>
