<svg width="54" height="38" viewBox="0 0 54 38" fill="none" xmlns="http://www.w3.org/2000/svg">
<path d="M38.7652 19.9504C38.7652 25.6052 34.2335 30.1893 28.6434 30.1893C23.0533 30.1893 18.5217 25.6052 18.5217 19.9504C18.5217 14.2956 23.0533 9.71152 28.6434 9.71152C34.2335 9.71152 38.7652 14.2956 38.7652 19.9504Z" fill="#2AD7D7"/>
<path fill-rule="evenodd" clip-rule="evenodd" d="M28.6435 36.1C37.4608 36.1 44.6087 28.8694 44.6087 19.95C44.6087 11.0306 37.4608 3.8 28.6435 3.8C19.8261 3.8 12.6783 11.0306 12.6783 19.95C12.6783 28.8694 19.8261 36.1 28.6435 36.1ZM40.1739 19.9504C40.1739 26.3922 35.0115 31.6143 28.6434 31.6143C22.2753 31.6143 17.113 26.3922 17.113 19.9504C17.113 13.5086 22.2753 8.28652 28.6434 8.28652C35.0115 8.28652 40.1739 13.5086 40.1739 19.9504Z" fill="#2AD7D7"/>
<path fill-rule="evenodd" clip-rule="evenodd" d="M5.59696 0C8.69799 0 11.2696 3.61905 11.2696 8.06746C11.2696 11.9881 9.22743 15.3056 6.65585 15.9841L7.18529 36.7183C7.18529 37.3968 6.27768 38 5.59696 38C4.91625 38 4.00864 37.3968 4.08427 36.7183L4.61371 15.9841C1.9665 15.3056 0 11.9881 0 8.06746C0 3.61905 2.49594 0 5.59696 0Z" fill="#2AD7D7"/>
<path d="M51.3868 12.6311L51.5877 16.9774L52.1806 35.7422C52.2817 37.6262 50.9666 37.9494 50.299 37.9958C49.6343 38.0464 48.354 37.6596 48.408 36.0257L49.0771 15.7145L49.2342 12.529L46.7592 11.1272C46.6235 11.0958 46.5208 10.9266 46.487 10.4869L46.7185 0.737471C46.6508 -0.141899 47.812 -0.138318 47.8461 0.87274L48.0428 9.22712C47.9743 10.0685 49.562 10.3922 49.5438 9.02405L49.5379 0.786434C49.5874 -0.273162 50.8006 -0.188443 50.8178 0.602387L50.9263 9.00921C50.8609 10.4264 52.415 10.3103 52.4665 9.24867L52.5771 0.824375C52.5602 0.0333677 53.704 -0.182627 53.8265 0.776284L54 10.6283C53.9313 10.8991 53.8621 11.1698 53.6933 11.2695L51.3868 12.6311Z" fill="#2AD7D7"/>
</svg>
