<svg width="36" height="40" viewBox="0 0 36 40" fill="none" xmlns="http://www.w3.org/2000/svg">
<path fill-rule="evenodd" clip-rule="evenodd" d="M14.7562 25.6561C14.4192 26.2559 14.6305 27.0165 15.2284 27.3548C15.421 27.4637 15.6309 27.5156 15.8379 27.5156C16.2711 27.5156 16.6928 27.2874 16.9215 26.8809C18.4158 24.2217 20.4118 21.9572 22.7547 20.1858C23.2006 20.924 23.6148 21.6873 23.9952 22.4741C24.2947 23.0941 25.0386 23.3518 25.6557 23.0519C26.2733 22.7514 26.531 22.0054 26.2315 21.3858C25.805 20.5037 25.3334 19.6419 24.8204 18.8046C27.2631 17.3692 29.9895 16.4206 32.8603 16.0481C32.9044 16.5164 32.927 16.991 32.927 17.4711C32.927 18.9611 32.7067 20.4341 32.2725 21.849C32.0706 22.5072 32.4384 23.2051 33.0945 23.4077C33.75 23.61 34.4458 23.2413 34.6479 22.583C35.1554 20.9296 35.4126 19.2098 35.4126 17.4711C35.4126 7.83716 27.6016 0 18.0001 0C8.39848 0 0.587443 7.83716 0.587443 17.4711C0.587443 19.4917 0.932759 21.4758 1.61379 23.3676C1.84694 24.0154 2.55895 24.351 3.20487 24.1169C3.85052 23.8829 4.18465 23.1681 3.95148 22.5205C3.81262 22.1347 3.69014 21.7446 3.584 21.3506C9.08702 20.6056 14.0423 17.9642 17.7275 14.0726C19.0649 15.2853 20.2856 16.6367 21.3691 18.1105C18.7085 20.098 16.4447 22.6515 14.7562 25.6561ZM3.07301 17.4711C3.07301 13.8731 4.34368 10.5677 6.45926 7.98225C9.87946 8.87319 13.0403 10.4112 15.8036 12.4844C12.4879 15.9295 8.05418 18.2551 3.14016 18.8939C3.09546 18.4228 3.07301 17.9482 3.07301 17.4711ZM32.4192 13.5909C29.2052 14.0248 26.1556 15.1055 23.429 16.732C22.2211 15.0842 20.846 13.558 19.3339 12.1921C21.2701 9.675 22.7247 6.75613 23.5489 3.56678C27.8693 5.30887 31.1968 9.02274 32.4192 13.5909ZM8.45555 5.9643C11.6694 6.97741 14.7216 8.5556 17.4175 10.6031C19.1482 8.33443 20.4441 5.70455 21.1703 2.83394C20.1487 2.61136 19.0877 2.49392 18.0001 2.49392C14.3734 2.49392 11.0451 3.79792 8.45555 5.9643Z" fill="#69A3FB"/>
<path fill-rule="evenodd" clip-rule="evenodd" d="M25.5991 40H30.1783C30.8648 40 31.4211 39.4416 31.4211 38.7529V38.1974H34.7572C35.4436 38.1974 36 37.639 36 36.9504V27.3128C36 26.6242 35.4436 26.0658 34.7572 26.0658H31.4211V25.5104C31.4211 24.8218 30.8646 24.2635 30.1783 24.2635H25.5991C24.9128 24.2635 24.3563 24.8218 24.3563 25.5104V28.9045H11.6437V25.5104C11.6437 24.8218 11.0872 24.2635 10.4009 24.2635H5.82171C5.13538 24.2635 4.57893 24.8218 4.57893 25.5104V26.0658H1.24278C0.556446 26.0658 0 26.6242 0 27.3128V36.9505C0 37.6392 0.556446 38.1975 1.24278 38.1975H4.57905V38.753C4.57905 39.4417 5.1355 40 5.82183 40H10.401C11.0873 40 11.6438 39.4417 11.6438 38.753V35.359H24.3563V38.753C24.3563 39.4417 24.9128 40 25.5991 40ZM28.9356 26.7574V37.5061H26.842V26.7574H28.9356ZM9.15822 26.7574V37.5061H7.06462V26.7574H9.15822ZM31.4211 28.5598H33.5144V35.7034H31.4211V28.5598ZM4.57893 28.5598V35.7034H2.48557V28.5598H4.57893ZM11.6438 32.8651V31.3984H24.3565V32.8651H11.6438Z" fill="#69A3FB"/>
</svg>
