<svg width="40" height="30" viewBox="0 0 40 30" fill="none" xmlns="http://www.w3.org/2000/svg">
<path fill-rule="evenodd" clip-rule="evenodd" d="M6.59895 10.5913C7.41037 8.76522 8.17107 6.88696 9.18533 4.8C9.74318 3.8087 10.3517 2.92174 11.4674 2.81739H28.5578C29.6735 2.92174 30.2821 3.8087 30.8399 4.8C31.8542 6.88696 32.6149 8.76522 33.4263 10.5913H6.59895ZM14.6117 18.1043H25.3629C26.0222 18.1043 26.5293 18.6783 26.5293 19.3565C26.5293 19.9826 26.0222 20.5565 25.3629 20.5565H14.6117C14.0031 20.5565 13.4453 19.9826 13.4453 19.3565C13.4453 18.6783 14.0031 18.1043 14.6117 18.1043ZM11.4674 0C9.64175 0 8.52606 0.678261 7.00466 2.86957L4.46899 8.76522H0.614771C0.00620982 8.76522 -1.10949 12 2.94759 12.1043L1.57832 15.4957C1.62904 19.8261 1.62904 24.1043 1.62904 28.3826C1.62904 29.2696 2.33903 30 3.20115 30H8.47535C9.33747 30 9.99675 29.2696 9.99675 28.3826V24.8348H29.9778V28.3826C29.9778 29.2696 30.6878 30 31.5499 30H36.8241C37.6863 30 38.3455 29.2696 38.3455 28.3826C38.3455 24.1043 38.3962 19.8261 38.3962 15.4957L37.027 12.1043C41.1348 12 39.9684 8.76522 39.4105 8.76522H35.5563L33.0206 2.86957C31.4992 0.678261 30.3835 0 28.5578 0H11.4674ZM32.6656 15.8087C31.2964 15.8087 30.13 16.9565 30.13 18.4174C30.13 19.8261 31.2964 21.0261 32.6656 21.0261C34.0856 21.0261 35.2013 19.8261 35.2013 18.4174C35.2013 16.9565 34.0856 15.8087 32.6656 15.8087ZM7.35965 15.8087C8.72891 15.8087 9.89532 16.9565 9.89532 18.4174C9.89532 19.8261 8.72891 21.0261 7.35965 21.0261C5.93968 21.0261 4.82398 19.8261 4.82398 18.4174C4.82398 16.9565 5.93968 15.8087 7.35965 15.8087Z" fill="#FB6972"/>
</svg>
