<svg width="46" height="40" viewBox="0 0 46 40" fill="none" xmlns="http://www.w3.org/2000/svg">
<path fill-rule="evenodd" clip-rule="evenodd" d="M45.9685 2.73859C46.0179 3.04667 46.009 3.38529 45.9432 3.75192C45.7598 4.76015 45.1209 5.9708 44.3328 7.08978C43.3954 8.42009 42.2429 9.63074 41.3966 10.2176L37.1308 13.1825L36.7184 30.8317C36.7171 31.071 36.6564 31.3039 36.5476 31.5114C36.4401 31.7177 36.282 31.8984 36.0872 32.0347L34.4413 33.1791C34.2768 33.2911 34.0985 33.3675 33.915 33.4082C33.7303 33.4477 33.5381 33.4515 33.347 33.4159C33.2699 33.4032 33.1332 33.3548 33.0561 33.3293C32.865 33.2606 32.6803 33.1333 32.5298 32.964C32.3856 32.8023 32.2705 32.6024 32.2047 32.3822L28.264 18.7303L21.5579 22.2604L21.5276 26.9133C21.5263 27.1539 21.4656 27.3894 21.3581 27.5944C21.248 27.8006 21.0899 27.9826 20.8925 28.1176L19.4352 29.1296C19.2745 29.2416 19.0949 29.3193 18.9102 29.3588C18.7242 29.3982 18.5306 29.4021 18.3396 29.3677C18.2865 29.3562 18.1941 29.3333 18.1435 29.3155C17.9209 29.2404 17.7223 29.1156 17.5641 28.9552C17.4035 28.7935 17.2808 28.5937 17.2099 28.3722L16.0334 24.7122L14.676 25.1094C14.3876 25.1973 14.07 25.182 13.7816 25.0789C13.4982 24.9783 13.2414 24.7924 13.0656 24.5366C12.8859 24.273 12.7987 23.9675 12.8037 23.6658C12.8088 23.3628 12.9074 23.0624 13.0959 22.8103L13.9473 21.671L10.9631 19.2675C10.7859 19.1262 10.6455 18.9442 10.5506 18.7392C10.457 18.5368 10.4077 18.3102 10.4128 18.0798C10.4229 17.8405 10.4874 17.6139 10.5949 17.4153C10.7037 17.2141 10.8581 17.0397 11.0465 16.9086L12.5077 15.8927C12.6658 15.782 12.8442 15.7043 13.0314 15.6649C13.2161 15.6254 13.4122 15.6216 13.6058 15.6572C14.9847 16.0048 16.7988 16.8284 18.184 17.3453L23.8426 12.285L12.5507 3.74555C12.3622 3.6017 12.2142 3.41584 12.1143 3.20961C12.0143 3.00211 11.9625 2.77042 11.9675 2.53618C11.9726 2.2994 12.0346 2.06898 12.1421 1.86785C12.2521 1.66416 12.409 1.48721 12.6026 1.35482L14.1004 0.261292C14.2611 0.150539 14.4394 0.072885 14.6241 0.0321483C14.8088 -0.00731537 15.0037 -0.0111344 15.1959 0.0245102C19.7805 1.17787 27.4126 4.14147 32.1402 5.90715L36.4059 2.94355C37.251 2.35541 38.7843 1.69853 40.3529 1.28862C41.6724 0.943632 43.0247 0.771774 44.0279 0.956363C44.391 1.02383 44.7098 1.13586 44.978 1.29117C45.25 1.44902 45.4726 1.65271 45.6409 1.89967C45.8091 2.14537 45.9192 2.42543 45.9698 2.73732L45.9685 2.73859ZM4.22408 29.3931L9.03384 26.0515C9.27167 25.8872 9.55251 25.835 9.81564 25.8821C10.0788 25.9305 10.3242 26.0807 10.4874 26.3188C10.6506 26.5568 10.7025 26.8407 10.6556 27.1042C10.6076 27.369 10.4583 27.616 10.2217 27.7802L5.41197 31.1219C5.1754 31.2861 4.89329 31.3383 4.63016 31.2912C4.36703 31.2428 4.12161 31.0926 3.95842 30.8546C3.79522 30.6165 3.74335 30.3326 3.79016 30.0678C3.83823 29.8031 3.98751 29.5561 4.22408 29.3919V29.3931ZM16.3876 38.0853L25.3936 31.8284C25.6314 31.6642 25.9123 31.612 26.1754 31.6591C26.4322 31.7062 26.6738 31.8513 26.837 32.0805L26.8484 32.0958C27.0116 32.3351 27.0635 32.6177 27.0154 32.8825C26.9686 33.1409 26.8244 33.3815 26.5979 33.5457L17.5768 39.8141C17.339 39.9783 17.0581 40.0305 16.795 39.9834C16.5318 39.935 16.2864 39.7848 16.1232 39.5468C15.96 39.3087 15.9082 39.0248 15.955 38.76C16.0031 38.4952 16.1523 38.2483 16.3889 38.0841L16.3876 38.0853ZM10.2382 8.44555C10.5 8.49393 10.7455 8.64415 10.9099 8.8822C11.0731 9.12026 11.125 9.40414 11.0782 9.66893C11.0301 9.93372 10.8808 10.1807 10.6443 10.3449L1.63829 16.6018C1.40046 16.766 1.11962 16.8182 0.856487 16.7711C0.593355 16.7227 0.347933 16.5725 0.184741 16.3345C0.0215478 16.0964 -0.0303197 15.8125 0.0164875 15.5477C0.0645598 15.283 0.213837 15.036 0.450403 14.8718L9.45637 8.61487C9.69293 8.45065 9.97504 8.39845 10.2382 8.44555ZM35.0169 12.2697L34.9031 30.4739L33.7152 31.3014L29.295 16.0022L19.444 21.1911L19.4086 26.7656L18.6888 27.2672L17.129 22.4208L15.3465 22.9402L16.461 21.4469L12.509 18.2656L13.2288 17.7666L18.4256 19.7054L26.7358 12.2774L14.0789 2.7055L15.2681 1.8793L32.2325 8.21896L37.3358 4.67486C38.6982 3.72519 41.9975 2.72459 43.5004 3.00211C43.7737 3.05176 43.8584 3.12687 43.8584 3.12687C44.2228 3.85503 41.9709 7.43477 40.1138 8.72435L35.0144 12.2697H35.0169Z" fill="#1ECC78"/>
</svg>
