<svg width="40" height="40" viewBox="0 0 40 40" fill="none" xmlns="http://www.w3.org/2000/svg">
<path d="M19.9998 7.91724L32.1991 20.2502C33.8592 17.9172 37.0125 17.7502 38.7553 19.6672C40.4149 21.3333 40.4149 24.0833 38.7553 25.7502C38.3395 26.135 37.8752 26.4338 37.385 26.6418C37.1142 26.7561 36.8355 26.843 36.553 26.9006C36.3041 26.9514 36.0522 26.9807 35.7998 26.9866C35.5115 26.9934 35.2226 26.9709 34.9377 26.9172C35.1866 28.2502 34.855 29.6672 33.776 30.7502C32.1164 32.4172 29.3778 32.4172 27.7177 30.7502C25.8923 28.8333 26.0581 25.6672 28.3819 24.0833L16.2654 11.6672C14.6058 14.0002 11.4524 14.1672 9.62646 12.3333C7.96686 10.6672 7.96686 7.91724 9.62646 6.25024C10.7055 5.25024 12.1161 4.83325 13.4441 5.08325C13.1951 3.75024 13.5267 2.33325 14.6058 1.25024C16.2654 -0.416748 19.004 -0.416748 20.664 1.25024C22.4895 3.16724 22.3236 6.33325 19.9998 7.91724Z" fill="#2EC9AD"/>
<path d="M0.1663 26.3333C5.56037 25.5002 9.87591 21.3333 11.0376 16.0002C5.4777 16.5002 0.913194 20.8333 0.1663 26.3333Z" fill="#2EC9AD"/>
<path d="M13.0293 39.9993C18.6723 39.5833 23.1537 35.1663 23.9006 29.6663C18.5065 30.4993 14.191 34.6663 13.0293 39.9993Z" fill="#2EC9AD"/>
<path d="M23.9837 28.0002C17.5933 28.8333 12.4482 33.6663 11.2865 40.0002C5.06244 39.6663 0.0831502 34.4163 0 28.0833C6.38992 27.2502 11.5355 22.3333 12.6972 16.0833C19.0044 16.4163 23.9837 21.5833 23.9837 28.0002Z" fill="#2EC9AD"/>
</svg>
