<svg width="18" height="18" viewBox="0 0 18 18" fill="none" xmlns="http://www.w3.org/2000/svg">
<path d="M4.34568 0.536133C5.34683 0.536133 6.26541 0.964453 6.90532 1.67146C4.57791 2.35265 2.69431 4.06079 1.77057 6.26951C1.22355 5.65024 0.898438 4.84004 0.898438 3.98338C0.898438 2.08429 2.4466 0.536133 4.34568 0.536133Z" fill="#FC5A8B"/>
<path d="M14.0157 0.541777C13.0094 0.541777 12.0908 0.975263 11.4664 1.69258C13.7473 2.37893 15.6 4.0561 16.5186 6.22355C17.0811 5.60945 17.4113 4.79922 17.4113 3.93742C17.4113 2.06929 15.889 0.541777 14.0157 0.541777Z" fill="#FC5A8B"/>
<path fill-rule="evenodd" clip-rule="evenodd" d="M9.15533 2.1206C5.17138 2.1206 1.93056 5.36142 1.93056 9.34539C1.93056 11.3121 2.72219 13.095 4.00149 14.3991L2.67213 15.728C2.36972 16.0298 2.36972 16.5206 2.67213 16.8225C2.82333 16.9742 3.0215 17.0501 3.21966 17.0501C3.41783 17.0501 3.61599 16.9747 3.76719 16.8235L5.20389 15.3868C6.34076 16.133 7.69747 16.5706 9.15584 16.5706C10.6137 16.5706 11.9699 16.133 13.1062 15.3879L14.5419 16.8235C14.6926 16.9742 14.8908 17.0501 15.0889 17.0501C15.2871 17.0501 15.4847 16.9747 15.6359 16.8235C15.9384 16.5216 15.9384 16.0309 15.6359 15.729L14.3081 14.4012C15.588 13.0965 16.3801 11.3126 16.3801 9.34539C16.3801 5.36142 13.1393 2.1206 9.15533 2.1206ZM12.0143 11.6676C11.8646 11.8224 11.6634 11.8947 11.4673 11.8947C11.266 11.8947 11.0699 11.8224 10.9202 11.6676L8.60831 9.35567C8.46381 9.21118 8.38124 9.01509 8.38124 8.80867V6.47611C8.38124 6.04777 8.727 5.70202 9.15533 5.70202C9.58365 5.70202 9.92941 6.04777 9.92941 6.47611V8.4887L12.0143 10.5736C12.3136 10.878 12.3136 11.3683 12.0143 11.6676Z" fill="#FC5A8B"/>
</svg>
