<svg width="15" height="15" viewBox="0 0 15 15" fill="none" xmlns="http://www.w3.org/2000/svg">
<path fill-rule="evenodd" clip-rule="evenodd" d="M2.60905 3.85289C2.60083 3.84056 2.5926 3.82822 2.58438 3.81558C2.52715 3.72735 2.47434 3.63596 2.42691 3.54172C2.36081 3.41144 2.30516 3.27577 2.26057 3.13632C2.18942 2.91496 2.14704 2.68474 2.13312 2.45263C2.12775 2.36409 2.12585 2.27554 2.12933 2.18732C2.1385 1.96279 2.1812 1.73922 2.25519 1.52703C2.31117 1.36607 2.38516 1.21144 2.47655 1.06755C2.62676 0.831646 2.82376 0.627047 3.0543 0.468616C3.22158 0.353509 3.405 0.263384 3.59726 0.197925C3.85214 0.111278 4.11872 0.0704852 4.38751 0.0600497C4.43779 0.0584685 4.48776 0.058152 4.53804 0.0584682C4.71545 0.0625791 4.89158 0.0840829 5.06393 0.126141C5.17113 0.152388 5.27644 0.185908 5.37921 0.226385C5.45732 0.25706 5.53384 0.291528 5.60879 0.329792C6.13088 0.596056 6.5521 1.02549 6.89141 1.49699C6.95655 1.58775 7.01916 1.68072 7.07925 1.77496C7.16273 1.90587 7.24148 2.03995 7.31611 2.17593C7.32591 2.19396 7.33571 2.2123 7.34551 2.23032C7.37619 2.1734 7.4075 2.11648 7.43975 2.06051C7.50584 1.94445 7.5751 1.83029 7.64814 1.71867C7.70918 1.62475 7.77274 1.53272 7.83947 1.4426C8.21325 0.936002 8.68822 0.481582 9.2783 0.239667C9.38013 0.198241 9.48449 0.16314 9.59105 0.135312C9.76245 0.0904072 9.93732 0.066374 10.1144 0.0594169C10.1527 0.0584683 10.1909 0.058152 10.2292 0.0584682C10.5005 0.0628954 10.7706 0.0970485 11.0302 0.17737C11.2358 0.240932 11.4324 0.332006 11.6114 0.451224C11.8375 0.602065 12.033 0.796861 12.1848 1.02233C12.2901 1.17886 12.3742 1.349 12.4358 1.52703C12.5051 1.72626 12.5472 1.93497 12.5595 2.14557C12.5655 2.24772 12.5642 2.35017 12.5579 2.45263C12.5453 2.66577 12.5083 2.87796 12.4472 3.08287C12.4052 3.2236 12.3517 3.36116 12.2878 3.49365C12.242 3.58916 12.1905 3.68213 12.1345 3.77194C12.1174 3.79913 12.0997 3.82633 12.082 3.85289H13.8282C14.0379 3.85289 14.239 3.93606 14.3873 4.08437C14.5356 4.23268 14.6188 4.4338 14.6188 4.64346C14.6188 5.44731 14.6188 6.68566 14.6188 7.48951C14.6188 7.69917 14.5356 7.9003 14.3873 8.04861C14.239 8.19692 14.0379 8.28009 13.8282 8.28009H13.3539V14.1303C13.3539 14.34 13.2663 14.5411 13.11 14.6894C12.9541 14.8377 12.7423 14.9209 12.5215 14.9209C10.2276 14.9209 4.46341 14.9209 2.16949 14.9209C1.94876 14.9209 1.73689 14.8377 1.58099 14.6894C1.42477 14.5411 1.33718 14.34 1.33718 14.1303V8.28009H0.862836C0.653177 8.28009 0.452054 8.19692 0.303743 8.04861C0.155432 7.9003 0.0722656 7.69917 0.0722656 7.48951C0.0722656 6.68566 0.0722656 5.44731 0.0722656 4.64346C0.0722656 4.4338 0.155432 4.23268 0.303743 4.08437C0.452054 3.93606 0.653177 3.85289 0.862836 3.85289H2.60905ZM2.91832 8.28009V13.3397H6.55494V8.28009H2.91832ZM8.13608 8.28009V13.3397H11.7727V8.28009H8.13608ZM6.55715 6.69894V5.43403H1.65341V6.69894H6.55715ZM13.0376 5.43403H8.13387V6.69894H13.0376V5.43403ZM6.35414 3.85289C6.30259 3.72229 6.2482 3.59263 6.19065 3.46456C6.02779 3.1009 5.8409 2.74451 5.60784 2.42038C5.50444 2.27681 5.39154 2.13925 5.26442 2.01592C5.16702 1.92168 5.06108 1.83504 4.94344 1.76705C4.84541 1.71076 4.73885 1.66775 4.6269 1.64941C4.56492 1.63961 4.50294 1.63803 4.44064 1.64024C4.38878 1.64214 4.33724 1.64625 4.28601 1.65352C4.13359 1.67503 3.97673 1.72594 3.86921 1.84105C3.84075 1.87109 3.81672 1.90492 3.79617 1.94066C3.77214 1.98272 3.75347 2.02794 3.73956 2.07442C3.71711 2.14842 3.70763 2.22463 3.70921 2.30211C3.71079 2.39698 3.72281 2.49216 3.74621 2.58418C3.75791 2.63067 3.77277 2.6762 3.78985 2.72079C3.90907 3.0269 4.1494 3.2704 4.41092 3.46077C4.60287 3.60022 4.81158 3.71596 5.02757 3.81368C5.05729 3.82696 5.08701 3.84024 5.11705 3.85289H6.35414ZM9.57303 3.85289C9.71818 3.79154 9.86016 3.72197 9.99677 3.64355C10.1505 3.55532 10.2981 3.45539 10.4332 3.34028C10.6618 3.14549 10.8575 2.90104 10.9385 2.60758C10.9635 2.51714 10.9774 2.42385 10.9812 2.32993C10.9821 2.29958 10.9828 2.26922 10.9809 2.23886C10.9774 2.17815 10.9657 2.11806 10.947 2.06019C10.9309 2.00991 10.9088 1.96121 10.8803 1.91663C10.8594 1.88374 10.8351 1.85338 10.8076 1.82618C10.6846 1.7057 10.5069 1.66111 10.3405 1.64593C10.2656 1.63898 10.189 1.63581 10.1141 1.64309C10.0464 1.64973 9.9797 1.66522 9.91551 1.68831C9.81653 1.72404 9.72419 1.77654 9.63881 1.83725C9.51832 1.92327 9.41049 2.02572 9.31151 2.13546C9.27198 2.17941 9.23371 2.22463 9.19672 2.2708C9.14738 2.33215 9.10058 2.3954 9.05536 2.45959C8.80459 2.81724 8.60663 3.21126 8.43555 3.61256C8.40171 3.69225 8.36883 3.77225 8.33689 3.85289H9.57303Z" fill="#FC5A8B"/>
</svg>
