<svg width="16" height="21" viewBox="0 0 16 21" fill="none" xmlns="http://www.w3.org/2000/svg">
<path fill-rule="evenodd" clip-rule="evenodd" d="M0.24707 8.6372C0.24707 11.3477 2.56113 15.2759 7.1897 20.4216C7.56217 20.8358 8.20735 20.8358 8.57981 20.4216C13.2084 15.2759 15.5224 11.3477 15.5224 8.6372C15.5224 4.37256 12.1031 0.915527 7.88476 0.915527C3.66641 0.915527 0.24707 4.37256 0.24707 8.6372ZM7.88476 12.8055C9.9937 12.8055 11.7036 11.0311 11.7036 8.84221C11.7036 6.65335 9.9937 4.87887 7.88476 4.87887C5.77582 4.87887 4.06591 6.65335 4.06591 8.84221C4.06591 11.0311 5.77582 12.8055 7.88476 12.8055Z" fill="#FC5A8B"/>
</svg>
