<svg width="120" height="21" viewBox="0 0 120 21" fill="none" xmlns="http://www.w3.org/2000/svg">
<path d="M116.523 20.1456H119.856V0.771973H116.523V20.1456ZM0.956055 20.1456H4.28931V14.3224C4.28931 11.1489 6.05413 9.63098 8.54731 9.63098C11.0962 9.63098 12.1607 10.7622 12.1607 13.3015V20.1456H15.5222V12.3353C15.5222 8.38901 13.3373 5.9053 9.7237 5.9053C7.48263 5.9053 5.5499 6.84373 4.20535 8.6096V6.34647H0.956055V20.1456L0.956055 20.1456ZM16.6131 15.8404C16.6131 18.7381 19.2745 20.5872 22.5798 20.5872C25.1569 20.5872 27.5377 19.5385 28.5741 17.9654V20.1456H31.9078V12.032C31.9078 7.25756 29.5548 5.9053 24.8486 5.9053C19.6948 5.9053 17.1736 7.64382 17.1736 11.1763H20.5068C20.5068 9.85157 21.5435 9.16176 24.7086 9.16176C27.5377 9.16176 28.5741 9.79642 28.5741 11.1489L22.3556 11.9214C18.7703 12.3631 16.7253 12.9977 16.6131 15.8404H16.6131ZM28.5741 14.7641C27.6778 16.2266 25.465 17.4686 22.7759 17.4686C21.2072 17.4686 20.3389 16.9718 20.3389 16.0609C20.3389 15.3987 20.8989 14.9846 21.9913 14.7919L28.5741 13.7983V14.7641V14.7641ZM34.0353 20.1456H37.3686V14.3224C37.3686 11.1489 39.1334 9.63098 41.6266 9.63098C44.1755 9.63098 45.2399 10.7622 45.2399 13.3015V20.1456H48.6014V12.3353C48.6014 8.38901 46.4165 5.9053 42.8029 5.9053C40.5619 5.9053 38.6291 6.84373 37.2846 8.6096V6.34647H34.0353V20.1456V20.1456ZM49.6367 13.2461C49.6367 17.3029 52.9139 20.5872 57.6479 20.5872C62.3537 20.6702 65.7712 17.2478 65.687 13.2461C65.7712 9.24472 62.3537 5.82234 57.6479 5.9053C52.9139 5.9053 49.6367 9.18933 49.6367 13.2461ZM62.2975 13.2461C62.2975 15.5644 60.421 16.8615 57.6479 16.8615C54.8749 16.8615 53.0261 15.5644 53.0261 13.2461C53.0261 10.9279 54.8749 9.63097 57.6479 9.63097C60.421 9.63097 62.2975 10.9279 62.2975 13.2461ZM66.0501 13.2461C66.0501 17.4686 68.9631 20.5872 72.9128 20.5872C75.4617 20.5872 77.2265 19.7317 78.235 17.993V20.1456H81.5402V0.771973H78.179V8.16842C77.1705 6.65025 75.5176 5.9053 73.2211 5.9053C68.9631 5.9053 66.0501 9.10638 66.0501 13.2461V13.2461ZM78.2067 13.2461C78.2067 15.7025 76.5543 17.1929 73.7811 17.1929C71.008 17.1929 69.4396 15.7576 69.4396 13.2461C69.4396 10.79 71.008 9.35477 73.7811 9.35477C76.5543 9.35477 78.2067 10.79 78.2067 13.2461ZM98.682 12.9977C98.682 9.07904 95.6286 5.9053 90.9508 5.9053C86.2168 5.9053 82.8836 9.10638 82.8836 13.2461C82.8836 17.2202 85.9087 20.5872 91.147 20.5872C95.3205 20.5872 98.4299 18.4897 98.5978 15.4263H95.2366C95.0125 16.4199 93.3038 17.0545 91.0908 17.0545C88.5139 17.0545 86.7773 16.061 86.3008 14.2673H98.682V12.9977V12.9977ZM86.329 12.032C86.805 10.3759 88.4017 9.43749 90.8387 9.43749C93.6117 9.43749 95.2926 10.4589 95.3765 12.032H86.329ZM99.1009 15.8404C99.1009 18.7381 101.762 20.5872 105.067 20.5872C107.644 20.5872 110.025 19.5385 111.062 17.9654V20.1455H114.395V12.032C114.395 7.25756 112.042 5.90529 107.336 5.90529C102.182 5.90529 99.6613 7.64382 99.6613 11.1763H102.995C102.995 9.85156 104.031 9.16176 107.196 9.16176C110.025 9.16176 111.062 9.79641 111.062 11.1489L104.843 11.9214C101.258 12.3631 99.2128 12.9977 99.1009 15.8404H99.1009ZM111.062 14.7641C110.166 16.2266 107.952 17.4686 105.263 17.4686C103.695 17.4686 102.826 16.9718 102.826 16.0609C102.826 15.3987 103.387 14.9846 104.479 14.7919L111.062 13.7983V14.7641V14.7641Z" fill="white"/>
</svg>
