<svg width="310" height="771" viewBox="0 0 310 771" fill="none" xmlns="http://www.w3.org/2000/svg">
<g filter="url(#filter0_f_285_18)">
<path fill-rule="evenodd" clip-rule="evenodd" d="M-176.271 -19.851C-172.823 -97.4673 -108.227 -159.357 -29.0321 -159.357C52.3742 -159.357 118.363 -93.9739 118.363 -13.3281C118.363 6.24031 114.46 24.9064 107.421 41.974C68.1689 150.09 27.2901 270.208 -15.0589 375.656C-27.2757 415.618 -64.7067 444.713 -109.033 444.713C-163.287 444.713 -207.249 401.141 -207.249 347.399C-207.249 246.592 -185.73 88.5618 -176.245 -19.851H-176.271Z" fill="url(#paint0_radial_285_18)"/>
<path fill-rule="evenodd" clip-rule="evenodd" d="M395.2 393.6C411.28 416.998 420.687 445.267 420.687 475.703C420.687 556.362 354.698 621.731 273.305 621.731C217.503 621.731 168.948 590.999 143.929 545.701C47.8339 405.873 -66.4889 215.693 -152.358 66.6475C-167.567 43.6759 -176.414 16.1924 -176.414 -13.3279C-176.414 -93.9865 -110.425 -159.356 -29.0318 -159.356C25.8592 -159.356 73.7246 -129.63 99.095 -85.5429C193.902 57.6625 313.494 245.6 395.2 393.6Z" fill="url(#paint1_radial_285_18)"/>
<path fill-rule="evenodd" clip-rule="evenodd" d="M421.073 485.771C415.752 561.635 351.962 621.526 274.055 621.526C192.649 621.526 126.673 556.143 126.673 475.497C126.673 460.222 129.054 445.487 133.464 431.655C162.985 318.757 201.197 186.251 237.717 75.6076C249.96 27.7307 293.74 -7.6936 345.873 -7.6936C407.49 -7.6936 457.437 41.7947 457.437 102.846C457.437 107.68 457.125 112.424 456.514 117.091C448.759 239.761 435.97 363.733 421.086 485.771H421.073Z" fill="url(#paint2_radial_285_18)"/>
</g>
<defs>
<filter id="filter0_f_285_18" x="-355.874" y="-307.982" width="961.937" height="1078.34" filterUnits="userSpaceOnUse" color-interpolation-filters="sRGB">
<feFlood flood-opacity="0" result="BackgroundImageFix"/>
<feBlend mode="normal" in="SourceGraphic" in2="BackgroundImageFix" result="shape"/>
<feGaussianBlur stdDeviation="74.3126" result="effect1_foregroundBlur_285_18"/>
</filter>
<radialGradient id="paint0_radial_285_18" cx="0" cy="0" r="1" gradientUnits="userSpaceOnUse" gradientTransform="translate(-151.516 33.7323) rotate(74.728) scale(420.644 387)">
<stop stop-color="#E782F7"/>
<stop offset="0.678431" stop-color="#DE5CB6"/>
<stop offset="1" stop-color="#D63676"/>
</radialGradient>
<radialGradient id="paint1_radial_285_18" cx="0" cy="0" r="1" gradientUnits="userSpaceOnUse" gradientTransform="translate(134.236 488.78) rotate(-117.515) scale(579.192 536.291)">
<stop stop-color="#FF7D4B"/>
<stop offset="0.658824" stop-color="#F380A1"/>
<stop offset="1" stop-color="#E782F7"/>
</radialGradient>
<radialGradient id="paint2_radial_285_18" cx="0" cy="0" r="1" gradientUnits="userSpaceOnUse" gradientTransform="translate(387.724 68.2238) rotate(123.983) scale(461.239 705.19)">
<stop stop-color="#FFDB13"/>
<stop offset="0.541176" stop-color="#FFAC2F"/>
<stop offset="1" stop-color="#FF7D4B"/>
</radialGradient>
</defs>
</svg>
