<svg width="20" height="20" viewBox="0 0 20 20" fill="none" xmlns="http://www.w3.org/2000/svg">
<path fill-rule="evenodd" clip-rule="evenodd" d="M10 20C4.48101 20 0 15.519 0 10C0 4.48101 4.48101 0 10 0C15.519 0 20 4.48101 20 10C20 15.519 15.519 20 10 20ZM13.6456 9.08861H10.9114V6.35443C10.9114 5.8481 10.5063 5.44304 10 5.44304C9.49367 5.44304 9.08861 5.8481 9.08861 6.35443V9.08861H6.35443C5.8481 9.08861 5.44304 9.49367 5.44304 10C5.44304 10.5063 5.8481 10.9114 6.35443 10.9114H9.08861V13.6456C9.08861 14.1519 9.49367 14.557 10 14.557C10.5063 14.557 10.9114 14.1519 10.9114 13.6456V10.9114H13.6456C14.1519 10.9114 14.557 10.5063 14.557 10C14.557 9.49367 14.1266 9.08861 13.6456 9.08861Z" fill="#00C667"/>
</svg>
