<svg width="18" height="20" viewBox="0 0 18 20" fill="none" xmlns="http://www.w3.org/2000/svg">
<path d="M17.0867 9.98265C17.0867 8.10098 16.4146 6.2641 15.2274 4.83044C15.1154 4.69603 14.9362 4.67363 14.8018 4.76323L13.1665 5.70407C12.9873 5.81608 12.9425 6.06249 13.0993 6.2193C14.0401 7.24974 14.5778 8.5938 14.5778 10.0051C14.5778 12.5812 12.8081 14.7541 10.4336 15.3813C10.232 15.4261 10.008 15.2693 10.008 15.0677V14.0148C10.008 13.7684 9.73917 13.5892 9.51516 13.7236L8.37271 14.3732L6.13261 15.6725L4.63175 16.5461C4.40774 16.6805 4.40774 16.9941 4.63175 17.1286L9.51516 19.9511C9.73917 20.0855 10.008 19.9287 10.008 19.6599V18.3382C10.008 18.1814 10.12 18.0246 10.2992 18.0022C14.1298 17.3526 17.0867 13.9924 17.0867 9.98265Z" fill="#5F9CF7"/>
<path d="M8.01437 0.350179V1.67183C8.01437 1.82864 7.90236 1.98545 7.72316 2.00785C3.87019 2.61267 0.913269 5.97281 0.913269 9.98258C0.913269 11.8867 1.5853 13.7235 2.79495 15.1572C2.90695 15.2916 3.08616 15.314 3.22057 15.2244L4.29581 14.5972L4.85584 14.2836C5.03504 14.1716 5.07985 13.9251 4.92304 13.7683C3.9598 12.7379 3.42218 11.3714 3.42218 9.96018C3.42218 7.38407 5.19185 5.21118 7.56635 4.58395C7.76796 4.53915 7.99197 4.69596 7.99197 4.89757V5.95041C7.99197 6.19682 8.26078 6.37603 8.48479 6.24163L13.3458 3.41911C13.5698 3.2847 13.5698 2.97109 13.3458 2.83668L8.48479 0.0365671C8.28318 -0.0754376 8.01437 0.0813676 8.01437 0.350179Z" fill="#5F9CF7"/>
</svg>
