<svg width="21" height="20" viewBox="0 0 21 20" fill="none" xmlns="http://www.w3.org/2000/svg">
<path d="M10.5017 2.44121e-07C12.2557 0.000223287 13.9787 0.461762 15.4979 1.3383C17.0172 2.21484 18.2791 3.47554 19.1572 4.99389C20.0352 6.51224 20.4985 8.23482 20.5004 9.98878C20.5024 11.7427 20.043 13.4664 19.1684 14.9867V18C19.1684 18.1768 19.0981 18.3464 18.9731 18.4714C18.8481 18.5964 18.6785 18.6667 18.5017 18.6667H15.4884C14.1594 19.4317 12.6723 19.8808 11.1421 19.9793C9.6118 20.0779 8.07938 19.8232 6.66327 19.2349C5.24717 18.6466 3.98532 17.7406 2.97528 16.5868C1.96524 15.433 1.23407 14.0624 0.838309 12.5809C0.442544 11.0994 0.392781 9.5468 0.692869 8.04302C0.992958 6.53924 1.63486 5.12462 2.56894 3.90852C3.50303 2.69243 4.70427 1.70744 6.0798 1.02971C7.45533 0.351977 8.96829 -0.000338555 10.5017 2.44121e-07Z" fill="#F67171"/>
<path fill-rule="evenodd" clip-rule="evenodd" d="M6.99951 10C6.99951 10.8284 6.32794 11.5 5.49951 11.5C4.67108 11.5 3.99951 10.8284 3.99951 10C3.99951 9.17157 4.67108 8.5 5.49951 8.5C6.32794 8.5 6.99951 9.17157 6.99951 10ZM11.9995 10C11.9995 10.8284 11.3279 11.5 10.4995 11.5C9.67108 11.5 8.99951 10.8284 8.99951 10C8.99951 9.17157 9.67108 8.5 10.4995 8.5C11.3279 8.5 11.9995 9.17157 11.9995 10ZM15.4995 11.5C16.3279 11.5 16.9995 10.8284 16.9995 10C16.9995 9.17157 16.3279 8.5 15.4995 8.5C14.6711 8.5 13.9995 9.17157 13.9995 10C13.9995 10.8284 14.6711 11.5 15.4995 11.5Z" fill="white"/>
</svg>
