<svg width="50" height="50" viewBox="0 0 50 50" fill="none" xmlns="http://www.w3.org/2000/svg">
<circle cx="25" cy="25" r="25" fill="#FE8862"/>
<path d="M35.705 25.3138C35.705 24.5023 35.0472 23.8445 34.2358 23.8445L26.4693 23.8445L26.4693 16.0779C26.4693 15.2665 25.8115 14.6087 25 14.6087C24.1885 14.6087 23.5307 15.2665 23.5307 16.0779L23.5307 23.8445L15.7642 23.8445C14.9528 23.8445 14.295 24.5023 14.295 25.3138C14.295 26.1252 14.9528 26.783 15.7642 26.783L23.5307 26.783V34.5495C23.5307 35.3609 24.1885 36.0187 25 36.0187C25.8115 36.0187 26.4693 35.3609 26.4693 34.5495V26.783L34.2358 26.783C35.0472 26.783 35.705 26.1252 35.705 25.3138Z" fill="white"/>
</svg>
