<svg width="24" height="24" viewBox="0 0 24 24" fill="none" xmlns="http://www.w3.org/2000/svg">
<rect width="24" height="24" rx="6" fill="#FE8862" fill-opacity="0.1"/>
<path d="M18.761 12.0711C18.761 11.5639 18.3498 11.1528 17.8427 11.1528L12.9886 11.1528L12.9886 6.2987C12.9886 5.79154 12.5775 5.38041 12.0703 5.38041C11.5631 5.38041 11.152 5.79154 11.152 6.2987L11.152 11.1528L6.29795 11.1528C5.79078 11.1528 5.37966 11.5639 5.37966 12.0711C5.37966 12.5783 5.79078 12.9894 6.29795 12.9894L11.152 12.9894V17.8434C11.152 18.3506 11.5631 18.7617 12.0703 18.7617C12.5775 18.7617 12.9886 18.3506 12.9886 17.8434L12.9886 12.9894L17.8427 12.9894C18.3498 12.9894 18.761 12.5783 18.761 12.0711Z" fill="#FE8862"/>
</svg>
