<svg width="14" height="14" viewBox="0 0 14 14" fill="none" xmlns="http://www.w3.org/2000/svg">
<path d="M13.761 7.07111C13.761 6.56395 13.3498 6.15283 12.8427 6.15283L7.9886 6.15283L7.9886 1.2987C7.9886 0.791535 7.57748 0.380415 7.07031 0.380415C6.56315 0.380415 6.15203 0.791535 6.15203 1.2987L6.15203 6.15283L1.29795 6.15283C0.790783 6.15283 0.379662 6.56395 0.379662 7.07111C0.379662 7.57828 0.790783 7.9894 1.29795 7.9894L6.15203 7.9894V12.8434C6.15203 13.3506 6.56315 13.7617 7.07031 13.7617C7.57748 13.7617 7.9886 13.3506 7.9886 12.8434L7.9886 7.9894L12.8427 7.9894C13.3498 7.9894 13.761 7.57828 13.761 7.07111Z" fill="#00C667"/>
</svg>
