<svg width="25" height="16" viewBox="0 0 25 16" fill="none" xmlns="http://www.w3.org/2000/svg">
<path d="M18.7829 8.23226C20.4487 8.23226 21.8037 6.46444 21.8037 4.79837C21.8037 3.13256 20.4487 1.77734 18.7829 1.77734C17.1171 1.77734 15.7622 3.13256 15.7622 4.79837C15.7624 6.46444 17.1174 8.23226 18.7829 8.23226Z" fill="#69A3FB"/>
<path d="M21.0505 8.2627C20.4643 8.70896 19.7332 8.97476 18.9416 8.97476H18.6236C17.8318 8.97476 17.1004 8.70896 16.5147 8.2627C15.7494 8.38619 15.059 8.72857 14.5028 9.21935C14.5513 9.27182 14.599 9.32429 14.6456 9.37836C15.6158 10.5075 16.1503 11.9499 16.1503 13.44C16.1503 13.6271 16.123 13.8055 16.0764 13.9772C16.8799 14.1325 17.8021 14.221 18.7826 14.221C21.899 14.221 24.425 13.3298 24.425 12.2308C24.4248 10.2303 22.9635 8.57169 21.0505 8.2627Z" fill="#69A3FB"/>
<path d="M6.47119 7.9861C6.89413 8.18539 7.35179 8.29934 7.82933 8.29934C8.30739 8.29934 8.76531 8.18538 9.18879 7.98557C10.6617 7.29021 11.7132 5.54782 11.7132 3.8844C11.7132 1.74265 9.97107 0 7.82933 0C5.68758 0 3.94519 1.74292 3.94519 3.8844C3.94572 5.54835 4.99751 7.29127 6.47119 7.9861Z" fill="#69A3FB"/>
<path d="M10.7452 8.33984C10.3896 8.61068 9.99101 8.82798 9.56356 8.9838C9.08576 9.15791 8.57112 9.25543 8.03397 9.25543H7.62507C7.08817 9.25543 6.57433 9.15817 6.0968 8.98433C5.66856 8.82851 5.26973 8.61121 4.91357 8.33984C2.45329 8.73735 0.574951 10.8696 0.574951 13.4417C0.574951 14.8544 3.82282 16.0003 7.82938 16.0003C11.568 16.0003 14.645 15.0023 15.0398 13.721C15.0682 13.629 15.0838 13.536 15.0838 13.4414C15.0838 12.1349 14.5986 10.943 13.7994 10.0332C13.025 9.15181 11.9557 8.53568 10.7452 8.33984Z" fill="#69A3FB"/>
</svg>
