<svg width="13" height="16" viewBox="0 0 13 16" fill="none" xmlns="http://www.w3.org/2000/svg">
<path fill-rule="evenodd" clip-rule="evenodd" d="M0.333344 6.23447C0.333344 8.42295 2.20171 11.5945 5.93882 15.7492C6.23955 16.0836 6.76047 16.0836 7.0612 15.7492C10.7983 11.5945 12.6667 8.42295 12.6667 6.23447C12.6667 2.79121 9.9059 0 6.50001 0C3.09412 0 0.333344 2.79121 0.333344 6.23447ZM6.50001 9.6C8.20277 9.6 9.58334 8.16728 9.58334 6.4C9.58334 4.63271 8.20277 3.2 6.50001 3.2C4.79725 3.2 3.41668 4.63271 3.41668 6.4C3.41668 8.16728 4.79725 9.6 6.50001 9.6Z" fill="#FC5A8B"/>
</svg>
