<svg width="40" height="40" viewBox="0 0 40 40" fill="none" xmlns="http://www.w3.org/2000/svg">
<path d="M20.0065 0C11.6567 0 9.21471 0.00861611 8.74003 0.0480041C7.02651 0.190478 5.96025 0.460347 4.79862 1.03886C3.9034 1.48351 3.19738 1.99894 2.50059 2.72146C1.2316 4.03911 0.462511 5.66017 0.184102 7.5871C0.048743 8.52257 0.00936576 8.71335 0.00136726 13.4916C-0.00170908 15.0844 0.00136726 17.1805 0.00136726 19.9922C0.00136726 28.3375 0.0105963 30.7777 0.0505888 31.2516C0.189024 32.9194 0.450514 33.9687 1.00426 35.1165C2.06252 37.3136 4.08368 38.963 6.46477 39.5784C7.28923 39.7908 8.19983 39.9077 9.36884 39.9631C9.86413 39.9846 14.9124 40 19.9638 40C25.0151 40 30.0665 39.9938 30.5495 39.9692C31.9031 39.9055 32.6891 39.8 33.5581 39.5753C35.9546 38.9568 37.9388 37.3321 39.0186 35.1042C39.5616 33.9841 39.837 32.8948 39.9615 31.314C39.9886 30.9694 40 25.4745 40 19.9869C40 14.4985 39.9877 9.01369 39.9606 8.66904C39.8345 7.06275 39.5592 5.98266 38.9986 4.84102C38.5387 3.90648 38.0281 3.20858 37.2867 2.49498C35.9635 1.23087 34.3454 0.461578 32.4171 0.1834C31.4828 0.0483118 31.2967 0.0083084 26.5161 0H20.0065Z" fill="url(#paint0_radial_12_8)"/>
<path d="M20.0065 0C11.6567 0 9.21471 0.00861611 8.74003 0.0480041C7.02651 0.190478 5.96025 0.460347 4.79862 1.03886C3.9034 1.48351 3.19738 1.99894 2.50059 2.72146C1.2316 4.03911 0.462511 5.66017 0.184102 7.5871C0.048743 8.52257 0.00936576 8.71335 0.00136726 13.4916C-0.00170908 15.0844 0.00136726 17.1805 0.00136726 19.9922C0.00136726 28.3375 0.0105963 30.7777 0.0505888 31.2516C0.189024 32.9194 0.450514 33.9687 1.00426 35.1165C2.06252 37.3136 4.08368 38.963 6.46477 39.5784C7.28923 39.7908 8.19983 39.9077 9.36884 39.9631C9.86413 39.9846 14.9124 40 19.9638 40C25.0151 40 30.0665 39.9938 30.5495 39.9692C31.9031 39.9055 32.6891 39.8 33.5581 39.5753C35.9546 38.9568 37.9388 37.3321 39.0186 35.1042C39.5616 33.9841 39.837 32.8948 39.9615 31.314C39.9886 30.9694 40 25.4745 40 19.9869C40 14.4985 39.9877 9.01369 39.9606 8.66904C39.8345 7.06275 39.5592 5.98266 38.9986 4.84102C38.5387 3.90648 38.0281 3.20858 37.2867 2.49498C35.9635 1.23087 34.3454 0.461578 32.4171 0.1834C31.4828 0.0483118 31.2967 0.0083084 26.5161 0H20.0065Z" fill="url(#paint1_radial_12_8)"/>
<path d="M19.9962 5.23047C15.9859 5.23047 15.4826 5.24801 13.9075 5.31971C12.3355 5.39171 11.2625 5.64066 10.3236 6.00592C9.35236 6.38318 8.52851 6.88784 7.70774 7.70914C6.88636 8.53013 6.38184 9.3542 6.00345 10.3254C5.63736 11.2648 5.38818 12.3385 5.31742 13.9103C5.24697 15.4858 5.22852 15.9895 5.22852 20.001C5.22852 24.0124 5.24636 24.5143 5.31773 26.0898C5.39002 27.6622 5.6389 28.7355 6.00375 29.6747C6.38122 30.6462 6.88574 31.4702 7.70682 32.2912C8.52728 33.1128 9.35112 33.6187 10.3217 33.996C11.2612 34.3612 12.3346 34.6102 13.9063 34.6822C15.4814 34.7539 15.9843 34.7714 19.9944 34.7714C24.005 34.7714 24.5067 34.7539 26.0818 34.6822C27.6538 34.6102 28.7281 34.3612 29.6676 33.996C30.6385 33.6187 31.4611 33.1128 32.2816 32.2912C33.103 31.4702 33.6075 30.6462 33.9859 29.675C34.3489 28.7355 34.5981 27.6619 34.6719 26.0901C34.7427 24.5146 34.7611 24.0124 34.7611 20.001C34.7611 15.9895 34.7427 15.4861 34.6719 13.9106C34.5981 12.3381 34.3489 11.2648 33.9859 10.3257C33.6075 9.3542 33.103 8.53013 32.2816 7.70914C31.4602 6.88753 30.6388 6.38287 29.6667 6.00592C28.7253 5.64066 27.6517 5.39171 26.0797 5.31971C24.5046 5.24801 24.0031 5.23047 19.9916 5.23047H19.9962ZM18.6715 7.89223C19.0647 7.89162 19.5034 7.89223 19.9962 7.89223C23.9388 7.89223 24.4061 7.90639 25.9631 7.97716C27.4028 8.04301 28.1842 8.28365 28.7047 8.48582C29.3938 8.75354 29.8851 9.07356 30.4016 9.59053C30.9185 10.1075 31.2384 10.5998 31.5066 11.2891C31.7088 11.8092 31.9496 12.5908 32.0152 14.0309C32.0859 15.588 32.1013 16.0557 32.1013 19.9976C32.1013 23.9394 32.0859 24.4072 32.0152 25.9642C31.9493 27.4043 31.7088 28.186 31.5066 28.706C31.239 29.3953 30.9185 29.8861 30.4016 30.4028C29.8848 30.9197 29.3941 31.2397 28.7047 31.5075C28.1848 31.7106 27.4028 31.9506 25.9631 32.0164C24.4064 32.0872 23.9388 32.1026 19.9962 32.1026C16.0532 32.1026 15.586 32.0872 14.0293 32.0164C12.5896 31.95 11.8082 31.7093 11.2874 31.5072C10.5983 31.2394 10.1061 30.9194 9.58923 30.4024C9.07241 29.8855 8.75247 29.3944 8.48421 28.7048C8.2821 28.1847 8.04122 27.4031 7.97569 25.963C7.90494 24.4059 7.89078 23.9382 7.89078 19.9939C7.89078 16.0495 7.90494 15.5843 7.97569 14.0272C8.04153 12.5871 8.2821 11.8055 8.48421 11.2848C8.75185 10.5955 9.07241 10.1032 9.58923 9.58622C10.1061 9.06926 10.5983 8.74923 11.2874 8.4809C11.8079 8.2778 12.5896 8.03778 14.0293 7.97162C15.3915 7.91008 15.9194 7.89162 18.6715 7.88854V7.89223ZM27.8784 10.3447C26.9001 10.3447 26.1064 11.1377 26.1064 12.1166C26.1064 13.0951 26.9001 13.889 27.8784 13.889C28.8567 13.889 29.6504 13.0951 29.6504 12.1166C29.6504 11.138 28.8567 10.3441 27.8784 10.3441V10.3447ZM19.9962 12.4157C15.8084 12.4157 12.413 15.812 12.413 20.001C12.413 24.1899 15.8084 27.5847 19.9962 27.5847C24.184 27.5847 27.5782 24.1899 27.5782 20.001C27.5782 15.812 24.1837 12.4157 19.9959 12.4157H19.9962ZM19.9962 15.0775C22.7145 15.0775 24.9183 17.2816 24.9183 20.001C24.9183 22.7199 22.7145 24.9244 19.9962 24.9244C17.2776 24.9244 15.074 22.7199 15.074 20.001C15.074 17.2816 17.2776 15.0775 19.9962 15.0775V15.0775Z" fill="white"/>
<defs>
<radialGradient id="paint0_radial_12_8" cx="0" cy="0" r="1" gradientUnits="userSpaceOnUse" gradientTransform="translate(10.6251 43.0808) rotate(-90) scale(39.643 36.8711)">
<stop stop-color="#FFDD55"/>
<stop offset="0.1" stop-color="#FFDD55"/>
<stop offset="0.5" stop-color="#FF543E"/>
<stop offset="1" stop-color="#C837AB"/>
</radialGradient>
<radialGradient id="paint1_radial_12_8" cx="0" cy="0" r="1" gradientUnits="userSpaceOnUse" gradientTransform="translate(-6.70021 2.88153) rotate(78.6806) scale(17.7206 73.0449)">
<stop stop-color="#3771C8"/>
<stop offset="0.128" stop-color="#3771C8"/>
<stop offset="1" stop-color="#6600FF" stop-opacity="0"/>
</radialGradient>
</defs>
</svg>
