<svg width="40" height="40" viewBox="0 0 40 40" fill="none" xmlns="http://www.w3.org/2000/svg">
<rect width="40" height="40" rx="10" fill="#FA8D11"/>
<path d="M19.0242 24.9047C17.1637 24.7106 15.4862 24.2524 14.0499 23.1291C13.8717 22.9893 13.6877 22.8546 13.5251 22.6985C12.8964 22.0948 12.8331 21.4033 13.3305 20.6907C13.7561 20.0809 14.4704 19.9178 15.2129 20.2679C15.3567 20.3358 15.4937 20.4205 15.6249 20.5115C18.3016 22.3506 21.9787 22.4014 24.6654 20.5942C24.9316 20.3901 25.2161 20.2237 25.5459 20.1387C26.1871 19.9741 26.7851 20.2096 27.1292 20.7706C27.5223 21.4113 27.5173 22.0367 27.0329 22.5341C26.2899 23.2967 25.3963 23.8485 24.4035 24.2335C23.4647 24.5975 22.4364 24.7807 21.4186 24.9024C21.5722 25.0695 21.6446 25.1517 21.7406 25.2483C23.1226 26.6367 24.5106 28.0194 25.888 29.4122C26.3573 29.8868 26.4553 30.4752 26.1969 31.0272C25.9144 31.6304 25.282 32.0273 24.6619 31.9848C24.269 31.9577 23.9626 31.7621 23.6904 31.4879C22.6475 30.4385 21.585 29.4084 20.5633 28.3392C20.2659 28.0282 20.1229 28.0871 19.8605 28.357C18.8113 29.4371 17.7451 30.5006 16.6726 31.558C16.191 32.0328 15.6179 32.1183 15.0594 31.8471C14.4657 31.5593 14.0879 30.9533 14.117 30.3442C14.1371 29.9323 14.3397 29.6176 14.6225 29.3353C15.9901 27.9697 17.354 26.6005 18.7183 25.2327C18.8086 25.1417 18.8928 25.0452 19.0242 24.9047Z" fill="white"/>
<path d="M20.1576 20.1478C16.8384 20.1364 14.1168 17.3849 14.1361 14.0604C14.1552 10.6993 16.8787 7.99072 20.2305 8.00002C23.5891 8.00907 26.2849 10.7566 26.268 14.1527C26.2509 17.4703 23.5104 20.1593 20.1576 20.1478ZM23.1741 14.0685C23.1683 12.4178 21.8537 11.1038 20.2064 11.1022C18.5451 11.1005 17.2187 12.4385 17.2316 14.1042C17.2439 15.7485 18.5698 17.0533 20.2217 17.0473C21.8686 17.0415 23.1796 15.7189 23.1741 14.0685Z" fill="white"/>
</svg>
