<svg width="40" height="40" viewBox="0 0 40 40" fill="none" xmlns="http://www.w3.org/2000/svg">
<rect width="40" height="40" rx="10" fill="#1DA1F2"/>
<path fill-rule="evenodd" clip-rule="evenodd" d="M32.6207 12.3691C31.7135 12.7695 30.7401 13.0413 29.719 13.1625C30.7622 12.5381 31.5629 11.5464 31.9376 10.3673C30.9605 10.9477 29.8806 11.3664 28.7309 11.5941C27.809 10.6134 26.4977 10 25.0432 10C22.2553 10 19.9927 12.2626 19.9927 15.0505C19.9927 15.4472 20.0367 15.8329 20.1249 16.2002C15.9265 15.9908 12.2057 13.978 9.71533 10.9219C9.28191 11.6676 9.03214 12.5344 9.03214 13.4601C9.03214 15.2121 9.9247 16.7585 11.2801 17.6621C10.4536 17.6364 9.67493 17.4086 8.99174 17.0303C8.99174 17.0523 8.99174 17.0707 8.99174 17.0927C8.99174 19.539 10.7328 21.5813 13.0432 22.0441C12.6208 22.1579 12.1726 22.2204 11.7135 22.2204C11.3866 22.2204 11.0707 22.1873 10.7622 22.1286C11.405 24.1341 13.2709 25.596 15.4784 25.6364C13.7484 26.9917 11.5739 27.7998 9.20477 27.7998C8.79706 27.7998 8.39669 27.7741 8 27.73C10.2332 29.1625 12.8889 30 15.7429 30C25.0321 30 30.112 22.3049 30.112 15.6309C30.112 15.4105 30.1084 15.1938 30.0973 14.977C31.0854 14.2645 31.9412 13.3756 32.6171 12.3618L32.6207 12.3691Z" fill="white"/>
</svg>
