<svg width="40" height="40" viewBox="0 0 40 40" fill="none" xmlns="http://www.w3.org/2000/svg">
<rect width="40" height="40" rx="10" fill="#4D7EF3"/>
<path fill-rule="evenodd" clip-rule="evenodd" d="M33.119 13.5954C33.3101 12.964 33.119 12.5 32.2092 12.5H29.2006C28.4357 12.5 28.083 12.9008 27.8918 13.3428C27.8918 13.3428 26.3618 17.0364 24.1945 19.4357C23.4933 20.1302 23.1745 20.3512 22.792 20.3512C22.6008 20.3512 22.324 20.1302 22.324 19.4989V13.5954C22.324 12.8377 22.102 12.5 21.4645 12.5H16.7368C16.2588 12.5 15.9713 12.8517 15.9713 13.1849C15.9713 13.9032 17.0549 14.0689 17.1666 16.0893V20.4775C17.1666 21.4396 16.9912 21.6141 16.6087 21.6141C15.5888 21.6141 13.1079 17.9039 11.6365 13.6585C11.3481 12.8333 11.0589 12.5 10.29 12.5H7.2815C6.42192 12.5 6.25 12.9008 6.25 13.3428C6.25 14.132 7.26995 18.0467 10.9991 23.2241C13.4851 26.7598 16.9878 28.6765 20.1751 28.6765C22.0875 28.6765 22.3241 28.2508 22.3241 27.5175V24.8452C22.3241 23.9938 22.5052 23.8239 23.1108 23.8239C23.557 23.8239 24.322 24.0449 26.1069 25.7496C28.1467 27.7701 28.483 28.6765 29.6304 28.6765H32.6389C33.4985 28.6765 33.9283 28.2508 33.6804 27.4107C33.4091 26.5734 32.4351 25.3586 31.1428 23.9186C30.4416 23.0978 29.3898 22.2139 29.071 21.7718C28.6248 21.2036 28.7523 20.951 29.071 20.446C29.071 20.446 32.7365 15.3317 33.119 13.5954V13.5954Z" fill="white"/>
</svg>
