<svg width="60" height="60" viewBox="0 0 60 60" fill="none" xmlns="http://www.w3.org/2000/svg">
<path d="M29.5536 31.2404C32.5923 28.1684 35.6314 25.096 38.6704 22.0251C41.1641 19.5025 45.0503 23.3904 42.5567 25.9114C37.8744 30.6433 33.1922 35.376 28.51 40.1104C27.4481 41.1834 25.688 41.1522 24.6238 40.1104C22.078 37.6159 19.5339 35.1222 16.9898 32.6277C14.4545 30.1452 18.3448 26.2613 20.8761 28.743C22.7529 30.5816 24.629 32.4203 26.505 34.2589L26.5368 34.2901C27.5424 33.2736 28.548 32.257 29.5536 31.2404Z" fill="#00C667"/>
<path fill-rule="evenodd" clip-rule="evenodd" d="M0 29.9988C0 13.4583 13.4581 0 30 0C46.5419 0 60 13.4575 60 29.9988C60 46.5409 46.5419 60 30 60C13.4581 60 0 46.5417 0 29.9988ZM5.49582 29.9988C5.49582 43.5115 16.4891 54.5041 30 54.5041C43.5117 54.5041 54.5042 43.5115 54.5042 29.9988C54.5042 16.4893 43.5117 5.4967 30 5.4967C16.4891 5.4967 5.49582 16.4885 5.49582 29.9988Z" fill="#00C667"/>
</svg>
