<svg width="23" height="20" viewBox="0 0 23 20" fill="none" xmlns="http://www.w3.org/2000/svg">
<path d="M22.273 15.3644L13.9815 1.48148C13.4319 0.549582 12.4523 0 11.3531 0C10.2539 0 9.27424 0.549582 8.72466 1.48148L0.433142 15.3644C-0.140335 16.3202 -0.140335 17.4671 0.409247 18.4468C0.958829 19.4265 1.96241 20 3.06158 20H19.6446C20.7677 20 21.7474 19.4265 22.2969 18.4468C22.8465 17.4671 22.8465 16.3202 22.273 15.3644ZM11.3531 16.7503C10.6362 16.7503 10.0628 16.1768 10.0628 15.46C10.0628 14.7431 10.6362 14.1697 11.3531 14.1697C12.0699 14.1697 12.6434 14.7431 12.6434 15.46C12.6434 16.1768 12.0699 16.7503 11.3531 16.7503ZM12.739 6.92951L12.285 12.2581C12.2372 12.7599 11.7832 13.1422 11.2814 13.0944C10.8274 13.0466 10.469 12.6882 10.4451 12.2581L9.99109 6.92951C9.9194 6.16487 10.4929 5.49582 11.2575 5.42413C12.0221 5.35245 12.6912 5.92593 12.7629 6.69056C12.739 6.76225 12.739 6.85783 12.739 6.92951Z" fill="#FDB807"/>
</svg>
