<svg width="163" height="22" viewBox="0 0 163 22" fill="none" xmlns="http://www.w3.org/2000/svg">
<path d="M10.232 15.096V18H0.584V15.096H3.896V4.008C3.72 4.248 3.408 4.536 2.96 4.872C2.512 5.192 2.016 5.472 1.472 5.712C0.944 5.952 0.464 6.072 0.032 6.072V3.096C0.448 3.096 0.88 2.984 1.328 2.76C1.776 2.536 2.192 2.28 2.576 1.992C2.96 1.688 3.272 1.424 3.512 1.2C3.768 0.959999 3.896 0.823999 3.896 0.792H7.184V15.096H10.232ZM18.5656 18V14.136H11.3896V11.256L19.5736 0.959999H21.7816V11.232H23.8936V14.136H21.7816V18H18.5656ZM14.6296 11.232H18.9256V5.808L14.6296 11.232ZM31.0258 21.048V15.192H31.3618C31.7778 15.192 32.1618 15.032 32.5138 14.712C32.8658 14.392 33.1538 13.816 33.3778 12.984C33.6178 12.152 33.7618 10.952 33.8098 9.384L33.9538 5.424H43.3858V15.192H45.1378V21.048H42.3298V18H33.8578V21.048H31.0258ZM35.4178 15.192H40.1698V8.136H36.7617L36.6898 9.696C36.6258 11.296 36.4898 12.52 36.2818 13.368C36.0738 14.216 35.7858 14.824 35.4178 15.192ZM47.2218 18V5.424H50.4378V10.224H55.5258V5.424H58.7418V18H55.5258V12.912H50.4378V18H47.2218ZM67.5148 18.24C66.1548 18.24 64.9788 17.944 63.9868 17.352C63.0108 16.76 62.2508 15.976 61.7068 15C61.1628 14.008 60.8908 12.936 60.8908 11.784C60.8908 10.6 61.1548 9.512 61.6828 8.52C62.2268 7.512 62.9948 6.712 63.9868 6.12C64.9788 5.512 66.1628 5.208 67.5388 5.208C68.9148 5.208 70.0908 5.512 71.0668 6.12C72.0428 6.712 72.7868 7.504 73.2988 8.496C73.8268 9.472 74.0908 10.528 74.0908 11.664C74.0908 12.08 74.0668 12.44 74.0188 12.744H64.2988C64.3788 13.72 64.7388 14.488 65.3788 15.048C66.0348 15.608 66.7868 15.888 67.6348 15.888C68.2748 15.888 68.8748 15.736 69.4348 15.432C70.0108 15.112 70.4028 14.696 70.6108 14.184L73.3708 14.952C72.9068 15.912 72.1628 16.704 71.1388 17.328C70.1148 17.936 68.9068 18.24 67.5148 18.24ZM64.2268 10.704H70.8028C70.7068 9.76 70.3468 9 69.7228 8.424C69.1148 7.832 68.3708 7.536 67.4908 7.536C66.6268 7.536 65.8828 7.832 65.2588 8.424C64.6508 9 64.3068 9.76 64.2268 10.704ZM76.0499 18V5.448H79.2659V13.704L84.9059 5.424H87.8339V18H84.6179V9.936L79.0499 18H76.0499ZM81.9539 4.248C80.7219 4.248 79.7539 3.936 79.0499 3.312C78.3459 2.672 77.9939 1.856 77.9939 0.863999H79.9859C79.9859 1.344 80.1379 1.744 80.4419 2.064C80.7619 2.384 81.2659 2.544 81.9539 2.544C82.6259 2.544 83.1059 2.392 83.3939 2.088C83.6979 1.784 83.8819 1.376 83.9459 0.863999H85.9379C85.9379 1.856 85.5859 2.672 84.8819 3.312C84.1779 3.936 83.2019 4.248 81.9539 4.248ZM101.022 18.192C99.6783 18.192 98.5503 17.952 97.6383 17.472C96.7423 16.992 96.0463 16.328 95.5503 15.48L98.1423 14.304C98.4143 14.72 98.7663 15.048 99.1983 15.288C99.6463 15.512 100.198 15.624 100.854 15.624C101.606 15.624 102.182 15.48 102.582 15.192C102.998 14.888 103.206 14.496 103.206 14.016C103.206 13.584 103.038 13.232 102.702 12.96C102.366 12.672 101.87 12.528 101.214 12.528H99.9183V10.536H101.238C101.686 10.536 102.038 10.408 102.294 10.152C102.566 9.896 102.702 9.56 102.702 9.144C102.702 8.728 102.542 8.4 102.222 8.16C101.918 7.904 101.43 7.776 100.758 7.776C100.198 7.776 99.7343 7.88 99.3663 8.088C98.9983 8.296 98.7023 8.608 98.4783 9.024L96.0543 7.728C96.5023 6.944 97.1423 6.328 97.9743 5.88C98.8223 5.432 99.8063 5.208 100.926 5.208C101.806 5.208 102.59 5.344 103.278 5.616C103.982 5.888 104.534 6.288 104.934 6.816C105.334 7.328 105.534 7.96 105.534 8.712C105.534 9.256 105.398 9.784 105.126 10.296C104.87 10.808 104.446 11.184 103.854 11.424C104.622 11.648 105.198 12.032 105.582 12.576C105.982 13.12 106.182 13.76 106.182 14.496C106.182 15.296 105.958 15.976 105.51 16.536C105.062 17.08 104.446 17.496 103.662 17.784C102.894 18.056 102.014 18.192 101.022 18.192ZM107.577 14.28C107.577 13.464 107.801 12.752 108.249 12.144C108.713 11.52 109.353 11.04 110.169 10.704C110.985 10.368 111.921 10.2 112.977 10.2C113.505 10.2 114.041 10.248 114.585 10.344C115.129 10.424 115.601 10.544 116.001 10.704V10.032C116.001 9.232 115.761 8.616 115.281 8.184C114.817 7.752 114.121 7.536 113.193 7.536C112.505 7.536 111.849 7.656 111.225 7.896C110.601 8.136 109.945 8.488 109.257 8.952L108.225 6.84C109.057 6.296 109.905 5.888 110.769 5.616C111.649 5.344 112.569 5.208 113.529 5.208C115.321 5.208 116.713 5.656 117.705 6.552C118.713 7.448 119.217 8.728 119.217 10.392V14.4C119.217 14.752 119.273 15 119.385 15.144C119.497 15.272 119.697 15.352 119.985 15.384V18C119.697 18.064 119.433 18.104 119.193 18.12C118.969 18.152 118.777 18.168 118.617 18.168C117.977 18.168 117.489 18.024 117.153 17.736C116.817 17.448 116.617 17.096 116.553 16.68L116.481 16.032C115.921 16.752 115.233 17.304 114.417 17.688C113.617 18.056 112.793 18.24 111.945 18.24C111.097 18.24 110.345 18.072 109.689 17.736C109.033 17.384 108.513 16.912 108.129 16.32C107.761 15.712 107.577 15.032 107.577 14.28ZM115.401 14.928C115.801 14.544 116.001 14.176 116.001 13.824V12.552C115.169 12.216 114.329 12.048 113.481 12.048C112.633 12.048 111.945 12.232 111.417 12.6C110.889 12.952 110.625 13.424 110.625 14.016C110.625 14.496 110.817 14.928 111.201 15.312C111.585 15.696 112.137 15.888 112.857 15.888C113.337 15.888 113.801 15.8 114.249 15.624C114.713 15.448 115.097 15.216 115.401 14.928ZM134.923 18.24C133.707 18.224 132.635 17.952 131.707 17.424C130.795 16.896 130.027 16.208 129.403 15.36C128.779 14.496 128.307 13.56 127.987 12.552C127.683 11.544 127.531 10.56 127.531 9.6C127.531 8.576 127.699 7.552 128.035 6.528C128.371 5.504 128.859 4.576 129.499 3.744C130.155 2.896 130.939 2.224 131.851 1.728C132.763 1.216 133.787 0.959999 134.923 0.959999C136.155 0.959999 137.227 1.232 138.139 1.776C139.067 2.32 139.843 3.024 140.467 3.888C141.091 4.752 141.555 5.688 141.859 6.696C142.179 7.704 142.339 8.672 142.339 9.6C142.339 10.64 142.171 11.672 141.835 12.696C141.499 13.704 141.003 14.632 140.347 15.48C139.707 16.312 138.931 16.984 138.019 17.496C137.107 17.992 136.075 18.24 134.923 18.24ZM130.867 9.6C130.883 10.256 130.971 10.92 131.131 11.592C131.307 12.264 131.555 12.88 131.875 13.44C132.211 14 132.627 14.456 133.123 14.808C133.635 15.144 134.235 15.312 134.923 15.312C135.643 15.312 136.259 15.128 136.771 14.76C137.283 14.392 137.699 13.92 138.019 13.344C138.355 12.768 138.603 12.152 138.763 11.496C138.923 10.84 139.003 10.208 139.003 9.6C139.003 8.944 138.915 8.28 138.739 7.608C138.563 6.936 138.307 6.32 137.971 5.76C137.635 5.2 137.211 4.752 136.699 4.416C136.187 4.064 135.595 3.888 134.923 3.888C134.219 3.888 133.611 4.072 133.099 4.44C132.587 4.808 132.163 5.28 131.827 5.856C131.491 6.432 131.243 7.056 131.083 7.728C130.939 8.384 130.867 9.008 130.867 9.6ZM150.893 18V15.36H149.117V13.776H150.893V12.288H149.117V9.384H150.893V0.959999H157.109C157.925 0.959999 158.669 1.12 159.341 1.44C160.013 1.76 160.581 2.192 161.045 2.736C161.525 3.28 161.893 3.888 162.149 4.56C162.405 5.232 162.533 5.92 162.533 6.624C162.533 7.584 162.317 8.496 161.885 9.36C161.469 10.224 160.861 10.928 160.061 11.472C159.277 12.016 158.341 12.288 157.253 12.288H154.181V13.776H157.349V15.36H154.181V18H150.893ZM154.181 9.384H157.037C157.789 9.384 158.333 9.136 158.669 8.64C159.021 8.128 159.197 7.456 159.197 6.624C159.197 5.744 158.989 5.064 158.573 4.584C158.173 4.104 157.613 3.864 156.893 3.864H154.181V9.384Z" fill="url(#paint0_linear_1220_3942)"/>
<defs>
<linearGradient id="paint0_linear_1220_3942" x1="20.3242" y1="47.0263" x2="62.52" y2="-46.5714" gradientUnits="userSpaceOnUse">
<stop stop-color="#FF13D9"/>
<stop offset="1" stop-color="#FFB74B"/>
</linearGradient>
</defs>
</svg>
