<svg width="30" height="30" viewBox="0 0 30 30" fill="none" xmlns="http://www.w3.org/2000/svg">
<circle cx="15" cy="15" r="15" fill="#FE8862"/>
<path d="M21.423 15.1867C21.423 14.6998 21.0283 14.3052 20.5415 14.3052L15.8816 14.3052L15.8816 9.64519C15.8816 9.15831 15.4869 8.76364 15 8.76364C14.5131 8.76364 14.1184 9.15831 14.1184 9.64519L14.1184 14.3052L9.45853 14.3052C8.97165 14.3052 8.57698 14.6998 8.57698 15.1867C8.57698 15.6736 8.97165 16.0683 9.45853 16.0683L14.1184 16.0683V20.7281C14.1184 21.215 14.5131 21.6097 15 21.6097C15.4869 21.6097 15.8816 21.215 15.8816 20.7281V16.0683L20.5415 16.0683C21.0283 16.0683 21.423 15.6736 21.423 15.1867Z" fill="white"/>
</svg>
