<svg width="40" height="40" viewBox="0 0 40 40" fill="none" xmlns="http://www.w3.org/2000/svg">
<path d="M12.6316 0H27.3684C34.3447 0 40 5.65535 40 12.6316V27.3684C40 34.3447 34.3447 40 27.3684 40H12.6316C5.65535 40 0 34.3447 0 27.3684V12.6316C0 5.65535 5.65535 0 12.6316 0Z" fill="#FE8862" fill-opacity="0.05"/>
<path fill-rule="evenodd" clip-rule="evenodd" d="M15.6733 20.7659C15.6733 18.2995 17.6803 16.2898 20.1435 16.2898C22.6066 16.2898 24.6136 18.2995 24.6136 20.7659C24.6136 23.2323 22.6066 25.2419 20.1435 25.2419C17.6803 25.2419 15.6733 23.2323 15.6733 20.7659ZM17.2926 20.7659C17.2926 22.3416 18.5698 23.6205 20.1435 23.6205C21.7171 23.6205 22.9943 22.3416 22.9943 20.7887C22.9943 19.213 21.7171 17.9341 20.1435 17.9341C18.5698 17.9341 17.2926 19.213 17.2926 20.7659Z" fill="#FE8862"/>
<path fill-rule="evenodd" clip-rule="evenodd" d="M25.6626 13.6405H27.4644C29.403 13.6405 30.9766 15.2163 30.9994 17.1346V25.1504C30.9994 27.0916 29.4258 28.6673 27.4872 28.6673H12.8224C10.8839 28.6673 9.3102 27.0916 9.33301 25.1732V17.1574C9.33301 15.2163 10.9067 13.6405 12.8452 13.6405H14.647C14.7838 13.6405 14.9207 13.572 14.9891 13.4578L15.5364 12.6129C16.0382 11.8136 16.9049 11.334 17.8399 11.334H22.4697C23.4048 11.334 24.2714 11.8136 24.7732 12.6129L25.3205 13.4578C25.389 13.572 25.5258 13.6405 25.6626 13.6405ZM27.4872 27.023C28.5135 27.023 29.3573 26.1781 29.3573 25.1504V17.1346C29.3573 16.1069 28.5135 15.262 27.4872 15.262H25.6855C24.9784 15.262 24.3399 14.8966 23.9521 14.3028L23.4048 13.4578C23.1995 13.1153 22.8574 12.9326 22.4697 12.9326H17.8399C17.4522 12.9326 17.1101 13.1381 16.9049 13.4578L16.3575 14.3028C15.9698 14.8966 15.3312 15.262 14.6242 15.262H12.8224C11.7961 15.262 10.9523 16.1069 10.9523 17.1346V25.1504C10.9523 26.1781 11.7961 27.023 12.8224 27.023H27.4872Z" fill="#FE8862"/>
</svg>
