<svg width="12" height="12" viewBox="0 0 12 12" fill="none" xmlns="http://www.w3.org/2000/svg">
<path d="M1.1568 1.15168C0.755676 1.54662 0.755676 2.18696 1.1568 2.5819L4.62668 5.99833L1.1568 9.41475C0.755676 9.80969 0.755676 10.45 1.1568 10.845C1.55793 11.2399 2.20828 11.2399 2.6094 10.845L6.07929 7.42855L9.38822 10.6865C9.78935 11.0814 10.4397 11.0814 10.8408 10.6865C11.242 10.2916 11.242 9.65122 10.8408 9.25628L7.53189 5.99833L10.8408 2.74037C11.242 2.34543 11.242 1.70509 10.8408 1.31015C10.4397 0.915203 9.78935 0.915204 9.38822 1.31015L6.07929 4.5681L2.60941 1.15168C2.20828 0.756732 1.55793 0.756732 1.1568 1.15168Z" fill="#272931"/>
</svg>
