<svg width="1440" height="900" viewBox="0 0 1440 900" fill="none" xmlns="http://www.w3.org/2000/svg">
<mask id="mask0_1728_3574" style="mask-type:alpha" maskUnits="userSpaceOnUse" x="-51" y="-234" width="1693" height="1338">
<rect x="-51" y="-233.307" width="1693" height="1337.31" rx="20" fill="#FAF5F2"/>
</mask>
<g mask="url(#mask0_1728_3574)">
<g filter="url(#filter0_f_1728_3574)">
<path fill-rule="evenodd" clip-rule="evenodd" d="M-281.574 22.0632C-256.303 -188.276 -48.039 -355.996 192.837 -355.996C440.44 -355.996 628.696 -178.809 613.335 39.74C609.608 92.7703 594.181 143.355 569.521 189.608C429.539 482.602 282.324 808.12 133.431 1093.88C88.6614 1202.18 -30.7295 1281.03 -165.552 1281.03C-330.568 1281.03 -455.983 1162.95 -445.746 1017.31C-426.545 744.121 -330.992 315.861 -281.494 22.0632L-281.574 22.0632Z" fill="url(#paint0_radial_1728_3574)"/>
<path fill-rule="evenodd" clip-rule="evenodd" d="M1377.84 1142.51C1422.29 1205.91 1445.52 1282.52 1439.72 1365C1424.36 1583.59 1211.2 1760.74 963.633 1760.74C793.908 1760.74 652.079 1677.46 584.61 1554.7C318.963 1175.77 7.46681 660.379 -225.32 256.469C-267.205 194.216 -288.879 119.736 -283.256 39.7361C-267.893 -178.848 -54.7314 -356 192.832 -356C359.787 -356 499.711 -275.441 568.479 -155.966C829.565 232.119 1157.52 741.427 1377.84 1142.51Z" fill="url(#paint1_radial_1728_3574)"/>
<path fill-rule="evenodd" clip-rule="evenodd" d="M1438.98 1392.29C1408.35 1597.88 1202.92 1760.19 965.961 1760.19C718.358 1760.19 530.141 1583 545.502 1364.45C548.411 1323.05 558.46 1283.12 574.509 1245.64C685.803 939.686 827.265 580.596 959.419 280.754C1005.78 151.008 1145.68 55.0088 1304.25 55.0088C1491.66 55.0088 1634.15 189.122 1622.52 354.571C1621.6 367.671 1619.75 380.527 1617 393.173C1570.05 725.608 1507.54 1061.57 1439.02 1392.29L1438.98 1392.29Z" fill="url(#paint2_radial_1728_3574)"/>
</g>
</g>
<defs>
<filter id="filter0_f_1728_3574" x="-596.33" y="-506" width="2369.52" height="2416.74" filterUnits="userSpaceOnUse" color-interpolation-filters="sRGB">
<feFlood flood-opacity="0" result="BackgroundImageFix"/>
<feBlend mode="normal" in="SourceGraphic" in2="BackgroundImageFix" result="shape"/>
<feGaussianBlur stdDeviation="75" result="effect1_foregroundBlur_1728_3574"/>
</filter>
<radialGradient id="paint0_radial_1728_3574" cx="0" cy="0" r="1" gradientUnits="userSpaceOnUse" gradientTransform="translate(-216.484 167.273) rotate(76.7122) scale(1129.94 1187.51)">
<stop stop-color="#E782F7"/>
<stop offset="0.678431" stop-color="#DE5CB6"/>
<stop offset="1" stop-color="#D63676"/>
</radialGradient>
<radialGradient id="paint1_radial_1728_3574" cx="0" cy="0" r="1" gradientUnits="userSpaceOnUse" gradientTransform="translate(565.97 1400.44) rotate(-117.219) scale(1565.41 1635.53)">
<stop stop-color="#FF7D4B"/>
<stop offset="0.658824" stop-color="#F380A1"/>
<stop offset="1" stop-color="#E782F7"/>
</radialGradient>
<radialGradient id="paint2_radial_1728_3574" cx="0" cy="0" r="1" gradientUnits="userSpaceOnUse" gradientTransform="translate(1417.08 260.744) rotate(129.585) scale(1344.88 1993.5)">
<stop stop-color="#FFDB13"/>
<stop offset="0.541176" stop-color="#FFAC2F"/>
<stop offset="1" stop-color="#FF7D4B"/>
</radialGradient>
</defs>
</svg>
